<?xml version="1.0" encoding="UTF-8"?>
<svg width="149px" height="32px" viewBox="0 0 149 32" version="1.1" xmlns="http://www.w3.org/2000/svg" xmlns:xlink="http://www.w3.org/1999/xlink">
    <!-- Generator: Sketch 60 (88103) - https://sketch.com -->
    <title>Shape</title>
    <desc>Created with Sketch.</desc>
    <g id="Screens" stroke="none" stroke-width="1" fill="none" fill-rule="evenodd" fill-opacity="0.4">
        <g id="Screens-/-Homepage" transform="translate(-1259.000000, -1058.000000)" fill="#1B2448">
            <g id="Logos" transform="translate(505.000000, 966.000000)">
                <path d="M896.848767,98.912496 L794.556303,98.570312 C793.72158,98.567184 792.890059,98.682816 792.08975,98.912496 L796.444552,92 L775.953758,94.917184 L775.334799,97.368752 L774.720482,94.917184 L754,92 L760.646319,102.11872 L762.059352,102.3172 L765.510685,108.09688 L768.719765,108.37656 L775.289502,124 L781.963919,108.37656 L786.323443,107.9984 C786.232768,112.84688 789.365258,117.17816 794.514046,117.13752 L896.848767,117.47968 C900.176452,117.44688 903.007946,114.69688 902.999972,111.34376 L902.999972,105.0984 C903.010347,101.73592 900.186056,98.970312 896.848767,98.912496 Z M775.292623,110.55312 L772.071059,97.739064 L760.114858,95.584376 L762.508006,99.30156 L769.507589,100.27656 L770.250036,102.69688 L765.588876,102.19528 L767.38645,105.1984 L771.117571,105.52344 L775.292623,118.20624 L779.464554,105.52344 L783.200317,105.1984 L784.993249,102.19528 L780.33513,102.69688 L781.074536,100.27656 L788.074119,99.30156 L790.471925,95.584376 L778.511066,97.739064 L775.292623,110.55312 Z M801.599663,111.43592 C800.464824,113.0016 798.936074,114.15472 796.272565,114.15472 C792.835318,114.15472 790.068649,111.52184 790.068649,107.92656 L790.068649,107.89216 C790.068649,104.3828 792.766571,101.62968 796.410139,101.62968 C798.867327,101.62968 800.447618,102.66248 801.513629,104.14216 L799.004901,106.08592 C798.317115,105.22496 797.52617,104.67504 796.375725,104.67504 C794.690755,104.67504 793.505897,106.10312 793.505897,107.85784 L793.505897,107.89216 C793.505897,108.77032 793.785685,109.55472 794.267151,110.12968 C794.492198,110.39688 794.759501,110.61872 795.062738,110.7844 C795.270658,110.89688 795.494185,110.9828 795.731717,111.03752 C795.833356,111.06096 795.936516,111.07816 796.042797,111.09064 C796.150678,111.10312 796.261601,111.10936 796.375725,111.10936 C796.949387,111.10936 797.415167,110.98752 797.821644,110.77032 C798.30303,110.51248 798.698542,110.12344 799.090854,109.64688 L801.599663,111.43592 Z M814.567151,107.89216 C814.567151,111.35 811.783276,114.15472 808.070882,114.15472 C804.358488,114.15472 801.609026,111.3844 801.609026,107.92656 L801.609026,107.89216 C801.609026,104.4344 804.392901,101.62968 808.105295,101.62968 C811.817609,101.62968 814.567151,104.4 814.567151,107.85784 L814.567151,107.89216 Z M805.029067,107.89216 C805.029067,109.62968 806.284272,111.14376 808.105295,111.14376 C809.119687,111.14376 809.946566,110.69216 810.482773,109.99528 L810.587454,109.85 C810.643715,109.7672 810.696936,109.68128 810.745355,109.59376 C810.81098,109.47656 810.868842,109.35472 810.918862,109.22816 C810.990729,109.04688 811.048592,108.85784 811.089248,108.66248 C811.139267,108.42496 811.164236,108.17816 811.164236,107.92656 L811.164236,107.89216 C811.164236,106.15472 809.909112,104.64064 808.070882,104.64064 C806.249859,104.64064 805.029067,106.12032 805.029067,107.85784 L805.029067,107.89216 Z M815.28927,113.91408 L819.859835,113.91408 C824.189587,113.91408 826.717123,111.3328 826.717123,107.85784 L826.717123,107.82344 C826.717123,104.3484 824.224,101.87032 819.928581,101.87032 L815.28927,101.87032 L815.28927,113.91408 Z M818.621837,104.82968 L819.980201,104.82968 C821.973131,104.82968 823.297082,105.9484 823.297082,107.87504 L823.297082,107.90936 C823.297082,108.87344 822.971917,109.63128 822.399856,110.1484 L822.270125,110.25936 L822.168486,110.33592 C822.085654,110.39528 821.999701,110.45 821.909026,110.5016 C821.6871,110.62656 821.443246,110.72656 821.177544,110.8016 C821.054056,110.83592 820.925846,110.86408 820.794516,110.88752 C820.714805,110.9016 820.633573,110.91248 820.550661,110.92184 C820.367791,110.94376 820.177157,110.95472 819.980201,110.95472 L818.621837,110.95472 L818.621837,104.82968 Z M836.948834,113.91408 L827.189225,113.91408 L827.189225,101.87032 L836.864802,101.87032 L836.864802,104.70936 L830.4889,104.70936 L830.4889,106.5328 L836.262969,106.5328 L836.262969,109.1656 L830.4889,109.1656 L830.4889,111.07504 L836.948834,111.07504 L836.948834,113.91408 Z M846.451704,112.89064 C847.162379,112.22816 847.564134,111.3156 847.564134,110.19688 L847.564134,110.16248 C847.564134,107.90936 845.84507,107.01408 843.078402,106.41248 C841.412158,106.0344 840.999199,105.79376 840.999199,105.24216 L840.999199,105.20784 C840.999199,104.77816 841.394551,104.4344 842.202863,104.4344 L842.415746,104.43904 L842.568605,104.4484 L842.723064,104.4656 C842.887128,104.4844 843.052792,104.51248 843.220056,104.55 L843.459349,104.60936 C844.164421,104.7984 844.8863,105.14064 845.569764,105.62184 L847.237608,103.26408 C845.930703,102.21408 844.333286,101.66408 842.288496,101.66408 C839.401782,101.66408 837.630698,103.28128 837.630698,105.5172 L837.630698,105.5516 C837.630698,106.87184 838.191714,107.69528 839.104867,108.26248 C839.903575,108.76096 840.972788,109.06408 842.16845,109.33752 C843.80028,109.7156 844.195633,109.99064 844.195633,110.49064 L844.195633,110.52496 C844.195633,111.04064 843.714647,111.35 842.819902,111.35 C842.042001,111.35 841.283308,111.19376 840.559829,110.89064 C840.247708,110.75936 839.942791,110.6016 839.644275,110.4172 C839.39698,110.26408 839.156087,110.09376 838.919996,109.90472 L837.064879,112.12496 C838.54225,113.4484 840.569433,114.12032 842.701456,114.12032 C844.294071,114.12032 845.596174,113.6844 846.451704,112.89064 Z M851.816176,113.91408 L848.464482,113.91408 L848.464482,101.87032 L851.816176,101.87032 L851.816176,113.91408 Z M859.139004,114.15472 C861.321447,114.15472 863.09093,113.34528 864.362621,112.29688 L864.362621,106.87656 L858.829284,106.87656 L858.829284,109.32032 L861.2006,109.32032 L861.2006,110.7828 C860.702008,111.10936 860.083369,111.28128 859.276657,111.28128 C858.485952,111.28128 857.790483,111.04216 857.246273,110.62344 C856.477176,110.0328 856.011396,109.0828 856.011396,107.94376 L856.011396,107.90936 C856.011396,106.06872 857.351114,104.60624 859.087784,104.60624 C860.272242,104.60624 861.131774,105.01872 861.992106,105.74216 L863.950462,103.3844 C862.679571,102.2828 861.183794,101.62968 859.070177,101.62968 C855.340737,101.62968 852.590875,104.3828 852.590875,107.89216 L852.590875,107.92656 C852.590875,111.57344 855.391957,114.15472 859.139004,114.15472 Z M868.383374,113.91408 L865.0837,113.91408 L865.0837,101.87032 L868.194501,101.87032 L873.142812,108.23592 L873.142812,101.87032 L876.442487,101.87032 L876.442487,113.91408 L873.521358,113.91408 L868.383374,107.30784 L868.383374,113.91408 Z M876.600147,113.91408 L880.106301,113.91408 L880.965033,111.76248 L885.603625,111.76248 L886.480763,113.91408 L890.055744,113.91408 L884.934566,101.7844 L881.721325,101.7844 L876.600147,113.91408 Z M881.944611,109.1656 L883.301135,105.74216 L884.642453,109.1656 L881.944611,109.1656 Z M899.479383,113.91408 L890.321446,113.91408 L890.321446,101.87032 L893.655534,101.87032 L893.655534,110.98904 L899.479383,110.98904 L899.479383,113.91408 Z" id="Shape"></path>
            </g>
        </g>
    </g>
</svg>