<?xml version="1.0" encoding="UTF-8"?>
<svg width="211px" height="45px" viewBox="0 0 211 45" version="1.1" xmlns="http://www.w3.org/2000/svg" xmlns:xlink="http://www.w3.org/1999/xlink">
    <!-- Generator: Sketch 60 (88103) - https://sketch.com -->
    <title>Cordova</title>
    <desc>Created with Sketch.</desc>
    <g id="Screens" stroke="none" stroke-width="1" fill="none" fill-rule="evenodd" fill-opacity="0.4">
        <g id="Screens-/-Homepage" transform="translate(-1122.000000, -2392.000000)" fill="#1B2448" fill-rule="nonzero">
            <g id="Integrations" transform="translate(432.000000, 2291.000000)">
                <g id="Stacked-Group" transform="translate(0.000000, 97.000000)">
                    <path d="M727.074382,4 C727.60416,4 727.902508,4.15141589 728.189703,4.58690409 C731.655564,9.94675878 735.149308,15.3066135 738.613775,20.6664682 C738.806405,20.9811295 738.886699,21.3477006 738.842416,21.7102999 C737.448264,30.5772861 736.039242,39.4424858 734.615348,48.3058988 C734.573524,48.5269928 734.519152,48.7440669 734.47175,48.9973201 L726.548787,48.9973201 L727.091112,42.653932 L723.201429,42.653932 L722.621462,49 L706.195568,49 L705.622571,42.6499122 L701.732888,42.6499122 L702.266848,48.9839204 L694.336914,48.9839204 C694.108273,47.5849984 693.874056,46.1793765 693.649597,44.7737546 C692.454809,37.3222166 691.275357,29.8612989 690.05408,22.4191406 C689.914665,21.5535241 690.034562,20.8714826 690.533668,20.1144031 C693.929822,14.9702826 697.275786,9.79668285 700.617567,4.61906322 C700.907551,4.16883542 701.218446,4 701.776107,4 C710.208865,4.01786618 718.641624,4.01786618 727.074382,4 Z M850.431898,19.8108108 C856.469509,19.8108108 861.388838,24.539619 861.411094,30.3686153 C861.434567,36.2282835 856.520781,40.9130842 850.373698,40.8918198 C844.259872,40.8677431 839.505445,36.2709574 839.510983,30.3792838 C839.510983,24.4916108 844.352716,19.8121444 850.431898,19.8108108 Z M890.722005,19.8108235 C891.448658,19.8081477 891.731167,20.228912 891.986971,20.7720072 C894.883274,26.8383619 897.7852,32.9024761 900.692747,38.9643498 C900.789808,39.1430401 900.873414,39.3281266 900.942929,39.5181993 C901.152351,40.2011011 900.771456,40.7415076 900.029343,40.7872137 C899.572549,40.8127553 899.101701,40.7899023 898.404564,40.7899023 C896.973747,41.1864693 896.061566,40.3946796 895.675049,38.9683827 C895.266043,37.4587395 894.358079,36.9895806 892.743139,37.1320759 C890.885045,37.2960799 888.99884,37.1804705 887.121069,37.1616504 C886.712063,37.1616504 886.488586,37.278604 886.329762,37.6455965 C885.99806,38.4105003 885.611543,39.1525511 885.261569,39.9093891 C884.980466,40.5089446 884.520861,40.8046895 883.833563,40.7952794 C883.108316,40.7858694 882.381663,40.7952794 881.655011,40.7952794 C880.479998,40.7872137 880.07802,40.2078226 880.56714,39.1915356 C882.377447,35.42751 884.193376,31.6688615 886.014926,27.9155902 C887.163703,25.5388768 888.311074,23.1617154 889.457039,20.7841058 C889.714249,20.2463879 889.995352,19.8135249 890.722005,19.8108235 Z M746.884287,29.8159698 C747.361872,23.5831822 753.069093,19.1037825 759.473784,19.9031995 C761.593221,20.1540453 763.585022,21.0033095 765.192209,22.3414212 C765.973713,22.9769577 765.993321,23.4725962 765.27344,24.1880744 C764.854678,24.6051036 764.42471,25.015471 764.004547,25.428503 C763.211838,26.1999404 762.944334,26.2172611 762.05919,25.5617392 C759.758095,23.8616458 756.749725,23.7670481 754.518657,25.3272436 C752.287589,26.887439 751.378635,29.8652672 752.347812,32.4433869 C753.233663,34.878396 755.704298,36.4635831 758.40937,36.3325505 C759.777702,36.2699295 760.991975,35.7956087 762.087201,35.0201743 C762.93313,34.4206116 763.26646,34.455253 764.007348,35.1773929 C764.429379,35.5895368 764.849542,36.0047895 765.267838,36.4231511 C766.014329,37.1639441 765.99192,37.6262736 765.174002,38.3217663 C763.136209,40.0565012 760.734275,40.881233 758.013016,40.8918919 C751.583115,40.8918919 746.42911,35.7622997 746.884287,29.8159698 Z M879.19092,19.8108931 L879.350187,19.8169305 C880.053044,19.8627986 880.755902,19.8263739 881.45876,19.8263739 C882.822303,19.8304211 883.201846,20.3889324 882.63956,21.5666626 L882.63956,21.5666626 L874.999498,37.4666951 C874.567944,38.370566 874.129361,39.2636443 873.707646,40.1648171 C873.481326,40.6477809 873.127086,40.8892628 872.5648,40.8892628 C872.059089,40.922745 871.590443,40.6336927 871.412113,40.1783077 C868.413254,33.9159667 865.418144,27.6504778 862.426782,21.3818412 C861.982576,20.4509892 862.412725,19.8398645 863.48388,19.8263739 C864.282326,19.8155814 865.079366,19.8533551 865.873596,19.8155814 C866.632682,19.7791568 867.075482,20.0692049 867.384739,20.7437354 C868.964763,24.1973315 870.57993,27.6347388 872.185257,31.0775424 C872.287874,31.3028356 872.404548,31.5173363 872.591508,31.886979 L872.591508,31.886979 L876.056596,24.4347662 C876.620288,23.2300547 877.214905,22.0280414 877.732209,20.801745 C878.044277,20.0638087 878.532061,19.7629681 879.350187,19.8169305 Z M779.225854,19.8108122 C782.14577,19.809398 784.946557,20.9249859 787.011509,22.9119359 C789.076462,24.898886 790.236258,27.5942722 790.235526,30.4045976 C790.237762,33.1930872 789.085175,35.8674412 787.032887,37.8356946 C784.980599,39.8039481 782.197877,40.9037631 779.300675,40.8917952 C773.136313,40.9050326 768.342272,36.3229276 768.335337,30.4099318 C768.328416,24.52094 773.155711,19.8228155 779.225854,19.8108122 Z M826.43917,19.9583973 C831.586852,20.4481162 835.429003,24.6395731 835.707479,29.7943675 C835.965277,34.5775122 832.383681,39.1419605 827.488283,40.1871413 C826.512236,40.3951041 825.487938,40.4420635 824.482941,40.4635306 C822.485353,40.5051232 820.485009,40.4782893 818.487421,40.4742642 C817.537568,40.4742642 817.197054,40.1522573 817.194297,39.2224622 C817.186026,36.2076723 817.19154,33.1888573 817.190161,30.1700423 L817.190161,21.2491085 L817.190161,21.2491085 C817.190161,20.1113506 817.492074,19.8121525 818.661125,19.8242278 C821.255645,19.8510617 823.866708,19.7168921 826.43917,19.9583973 Z M805.117061,19.8108108 C808.408535,19.8108108 811.105695,21.7500505 811.908225,24.6797116 C812.701102,27.5758219 811.389752,30.3753056 808.470586,32.0219819 C808.351999,32.0998199 808.230654,32.1682636 808.025196,32.2809945 L810.598254,36.9311437 C810.94712,37.5605578 811.308396,38.1832618 811.644852,38.8193861 C812.157809,39.789677 811.746892,40.4647203 810.641,40.4754566 C809.791588,40.4835088 808.939417,40.452642 808.091384,40.4848508 C807.45984,40.5090074 807.068228,40.2660992 806.777276,39.7225753 C805.628639,37.5833724 804.440013,35.4643001 803.295512,33.3237552 C803.066612,32.8943042 802.812891,32.6836048 802.294419,32.7171557 C801.605557,32.7566367 800.914905,32.7566367 800.226044,32.7171557 C799.718602,32.691657 799.546238,32.8513591 799.554511,33.3613322 C799.58209,35.2844675 799.568301,37.2076028 799.564164,39.1320801 C799.564164,40.181551 799.256665,40.4741145 798.161806,40.4741145 L796.231322,40.4741145 L796.231322,40.4741145 C795.210924,40.4741145 794.87309,40.1466581 794.871711,39.1428164 C794.867114,35.3636475 794.867114,31.5840313 794.871711,27.8039677 L794.871711,21.3622026 L794.871711,21.3622026 C794.871711,20.0845858 795.147494,19.8108108 796.429886,19.8108108 L805.117061,19.8108108 L805.117061,19.8108108 Z M725.018008,12.5756755 C723.021583,12.595867 721.023764,12.5838073 719.023156,12.5864872 C718.844705,12.5905071 718.66486,12.6186463 718.420883,12.6387458 L718.850282,15.766221 L709.97093,15.766221 L710.404511,12.5905071 C708.034454,12.5905071 705.789869,12.5824673 703.541103,12.6079266 C703.376593,12.6079266 703.15074,12.8223208 703.062909,12.9898163 C701.678981,15.6161451 700.308065,18.2473871 698.950162,20.8835423 C698.85374,21.0830059 698.816588,21.3042126 698.842812,21.5227049 C699.436721,26.1679123 700.040853,30.8157997 700.655209,35.4663669 C700.777894,36.4043415 700.91731,37.3423161 701.04836,38.2802906 L727.763093,38.2802906 C727.816071,37.9948784 727.876019,37.7362654 727.910873,37.4763124 C728.600513,32.1870292 729.284577,26.8968526 729.963064,21.6057827 C729.994293,21.3225023 729.943641,21.036431 729.816678,20.7790251 C728.493628,18.1969151 727.142695,15.6295447 725.818251,13.0487747 C725.638406,12.6990442 725.423707,12.5717476 725.018008,12.5756755 Z M779.274349,24.3462317 C775.838157,24.3395762 773.050409,27.052033 773.053172,30.3939291 C773.047823,33.7081957 775.834996,36.3991191 779.278506,36.404282 C782.722015,36.4094301 785.517873,33.7268656 785.523229,30.4125989 C785.552326,27.1627183 782.656503,24.3515782 779.274349,24.3462317 Z M850.47347,24.344832 C847.026106,24.327243 844.216575,27.0023511 844.198117,30.3199403 C844.17984,33.6375295 846.959591,36.3412963 850.406955,36.3589725 L850.408341,36.3576389 C853.880972,36.3669738 856.705082,33.6758472 856.689901,30.372616 C856.675982,27.1227272 853.826928,24.3609218 850.47347,24.344832 Z M821.873256,24.2504814 L821.877392,36.1580296 L824.554628,36.1580296 L824.554628,36.1580296 C828.872394,36.1258289 831.705412,32.5488685 830.558419,28.4795058 C829.370068,24.2625567 825.642341,23.7634459 821.873256,24.2504814 Z M890.662973,28.3672732 L888.456311,33.0951583 L892.901963,33.0951583 L890.662973,28.3672732 Z M707.61953,25.0810811 C707.829626,25.2690792 708.169011,25.429661 708.227779,25.6502978 C708.512805,26.7169262 708.719962,27.8005268 708.952096,28.8645442 C708.72437,29.9860055 708.545127,31.0539395 708.270386,32.1022904 C708.202803,32.363399 707.829626,32.5579249 707.594554,32.7837838 C707.384458,32.560536 707.06711,32.3660101 706.978958,32.1101237 C706.228201,30.0094247 706.241052,27.7519731 707.015688,25.658131 C707.099433,25.4309666 707.412372,25.2664682 707.61953,25.0810811 Z M721.489292,24.6756757 C721.736076,24.919895 722.130635,25.1353826 722.204523,25.4148635 C722.473473,26.4439801 722.638981,27.4979104 722.850299,28.5766545 C722.63307,29.6279728 722.454262,30.6792912 722.177923,31.7110198 C722.109947,31.9722169 721.734598,32.1576668 721.49077,32.3783784 C721.277974,32.1576668 720.95878,31.9669929 720.870115,31.7136317 C720.149762,29.663874 720.141012,27.4703651 720.844993,25.4161695 C720.938091,25.1379946 721.267629,24.921201 721.489292,24.6756757 Z M799.655172,24.1173992 L799.655172,28.7957311 C801.595308,28.7957311 803.47615,28.8520966 805.352855,28.7756006 C806.540103,28.7272874 807.450188,27.540929 807.42123,26.3196777 C807.389515,25.1923688 806.433926,24.1630284 805.230132,24.1254514 C803.387899,24.0744541 801.555319,24.1173992 799.655172,24.1173992 Z" id="Cordova"></path>
                </g>
            </g>
        </g>
    </g>
</svg>