<?xml version="1.0" encoding="UTF-8"?>
<svg width="146px" height="32px" viewBox="0 0 146 32" version="1.1" xmlns="http://www.w3.org/2000/svg" xmlns:xlink="http://www.w3.org/1999/xlink">
    <!-- Generator: Sketch 60 (88103) - https://sketch.com -->
    <title>Combined Shape</title>
    <desc>Created with Sketch.</desc>
    <g id="Screens" stroke="none" stroke-width="1" fill="none" fill-rule="evenodd" fill-opacity="0.4">
        <g id="Screens-/-Homepage" transform="translate(-516.000000, -1058.000000)" fill="#1B2448">
            <g id="Logos" transform="translate(505.000000, 966.000000)">
                <path d="M24.666978,92.0000122 C25.2219274,91.9984224 25.766511,92.1520548 26.2405469,92.443944 L26.2405469,92.443944 L28.033262,93.5512423 L28.033262,100.28726 L27.9519746,100.28726 L25.76216,98.9827264 C25.4486506,98.7267219 25.061887,98.5798125 24.6592887,98.5638087 C24.3182449,98.5574902 23.9827529,98.6516964 23.693727,98.8349385 L23.693727,98.8349385 L17.3104749,102.609087 C16.9753445,102.824716 16.7456218,103.173287 16.6777519,103.569152 C16.6706093,103.651036 16.6706093,103.733397 16.6777519,103.81528 L16.6777519,103.81528 L16.6777519,111.691377 C16.6616253,112.005037 16.7904991,112.308469 17.0265185,112.512544 L17.0265185,112.512544 L17.1237338,112.512544 L23.7019656,116.435036 C23.9823512,116.609363 24.305468,116.700606 24.6345729,116.698387 C24.9765779,116.694332 25.3107883,116.594524 25.6001345,116.410034 L25.6001345,116.410034 L31.7889562,112.833122 L31.9916252,112.709225 C32.4211299,112.41476 32.7050863,112.200856 32.7050863,111.593592 L32.7050863,111.593592 L32.7050863,96.2830965 L37.0204547,98.8266045 L37.0528598,98.8021584 C37.8921924,99.3271093 38.3902696,100.265718 38.3589494,101.263439 L38.3589494,113.90764 C38.3561429,115.040138 37.7560277,116.085016 36.7848313,116.648384 L36.7848313,116.648384 L26.2405469,122.801584 L26.102688,122.876034 C25.6435072,123.104131 25.1384386,123.221829 24.6268836,123.219969 C24.047728,123.212069 23.4835949,123.032409 23.0044325,122.703244 L23.0044325,122.703244 L12.5656018,116.548933 C11.5899518,115.991543 10.9904933,114.942161 11.000134,113.808745 L11.000134,113.808745 L11.000134,101.402893 C10.9894807,100.247502 11.6145372,99.1818393 12.6221734,98.6377027 L12.6221734,98.6377027 L12.6710557,98.6377027 L22.858335,92.6156225 C23.3951735,92.2489184 24.0201929,92.036184 24.666978,92.0000122 Z M24.666978,103.806936 C24.8013337,103.806229 24.9332631,103.843151 25.0481497,103.913621 L25.0481497,103.913621 L27.6356132,105.473172 L27.7169005,105.530398 C27.8694321,105.664233 27.9555136,105.859547 27.9519746,106.063768 L27.9519746,106.063768 L27.9519746,109.140646 C27.9508762,109.415109 27.8058771,109.667905 27.570803,109.805136 L27.570803,109.805136 L25.0157446,111.306906 C24.9102907,111.360799 24.7938521,111.38969 24.6752166,111.389142 C24.5318653,111.384134 24.3918094,111.342464 24.2698784,111.265237 L24.2698784,111.265237 L21.7307479,109.771801 C21.4934768,109.637347 21.3473793,109.382329 21.3495519,109.107311 L21.3495519,109.107311 L21.3495519,106.088214 C21.3511293,105.886312 21.4309357,105.696699 21.5664721,105.55677 L21.544556,105.54651 C21.595086,105.497618 21.652756,105.455949 21.71482,105.423724 L24.1885911,103.963068 C24.2909874,103.893577 24.4066386,103.847121 24.5275241,103.826401 C24.5731376,103.815849 24.6198085,103.809451 24.666978,103.806936 Z M61.8075971,107.975011 C61.8888844,113.029247 58.8389619,118.149043 51.9202021,118.149043 L44.149573,118.149043 L44.149573,98.1460023 L51.9202021,98.1460023 C58.701103,98.1460023 61.7186204,103.069118 61.8075971,107.992234 L61.8075971,107.975011 Z M47.856385,114.555463 L51.9119635,114.555463 C56.4052852,114.555463 58.1820724,111.27357 58.1007851,107.991678 C58.0194978,104.873686 56.2108547,101.764028 51.9119635,101.764028 L47.856385,101.764028 L47.856385,114.555463 Z M67.7772724,100.09058 C67.7772724,101.223302 66.8695232,102.141554 65.7497578,102.141554 C64.6299924,102.141554 63.7222431,101.223302 63.7222431,100.09058 C63.7222431,98.9578585 64.6299924,98.0396061 65.7497578,98.0396061 C66.8695232,98.0396061 67.7772724,98.9578585 67.7772724,100.09058 L67.7772724,100.09058 Z M64.0221275,118.141264 L67.4532216,118.141264 L67.4532216,104.004182 L64.0061996,104.004182 L64.0221275,118.141264 L64.0221275,118.141264 Z M79.6606008,107.81111 C78.7269444,106.937892 77.4832274,106.484845 76.2135788,106.555469 C74.5911277,106.555469 73.6744483,107.072726 73.6744483,107.958898 C73.6744483,108.84507 74.4856739,109.386219 76.2701504,109.501227 C78.8982575,109.673461 82.2315872,110.272391 82.2315872,114.014314 C82.2315872,116.475594 80.2285137,118.641854 76.2459839,118.641854 C73.8367121,118.81605 71.4759528,117.895523 69.8056109,116.130571 L71.5011108,113.668735 C72.8259209,114.870921 74.5241696,115.567356 76.3025555,115.637759 C77.6004065,115.637759 78.8169702,114.981047 78.8169702,113.997091 C78.8169702,113.012579 78.0057447,112.626997 76.0510041,112.511989 C73.4234462,112.314753 70.2922364,111.338575 70.2922364,108.138911 C70.2922364,104.938691 73.6261153,103.740831 76.1646965,103.740831 C78.1267549,103.592356 80.0675981,104.23215 81.5664591,105.521509 L79.6606008,107.81111 L79.6606008,107.81111 Z M84.4296404,124 L84.4296404,104.061408 L87.6739934,104.061408 L87.9002797,106.005986 C88.9610979,104.563458 90.6422691,103.724101 92.4194157,103.74972 C96.7100684,103.74972 99.5650112,106.98272 99.5650112,111.134116 C99.5650112,115.286068 96.9940248,118.518512 92.5325589,118.518512 C91.0644439,118.518512 88.8905571,118.059036 87.9002797,116.516153 L87.9002797,124 L84.4296404,124 L84.4296404,124 Z M96.0932734,111.085224 C96.0032349,108.942455 94.2597513,107.252171 92.1395786,107.252171 C90.0194059,107.252171 88.2759223,108.942455 88.1858839,111.085224 C88.2823841,113.223121 90.0239341,114.906217 92.1395786,114.906217 C94.2552231,114.906217 95.9967732,113.223121 96.0932734,111.085224 L96.0932734,111.085224 Z M113.135052,104.061408 L116.443666,104.061408 L116.443666,118.148487 L113.199862,118.148487 L113.029049,116.090012 C112.217823,117.730125 110.060413,118.551292 108.511011,118.551292 C104.390622,118.551292 101.332461,116.007784 101.332461,111.068556 C101.332461,106.128217 104.528481,103.683605 108.632942,103.683605 C110.399308,103.611073 112.07722,104.467407 113.069143,105.947649 L113.135052,104.061408 L113.135052,104.061408 Z M104.771794,111.093558 C104.638508,113.318223 106.312435,115.231357 108.51156,115.367741 L108.892183,115.367741 C114.31921,115.367741 114.31921,106.826598 108.892183,106.826598 C107.770337,106.780212 106.681623,107.217004 105.896169,108.028598 C105.110715,108.840191 104.702131,109.950528 104.771794,111.084113 L104.771794,111.093558 Z M123.613977,100.09058 L123.613977,104.094744 L127.458648,104.094744 L127.458648,107.097728 L123.581572,107.097728 L123.581572,113.184813 C123.508935,113.699409 123.666414,114.220017 124.011282,114.605382 C124.356149,114.990746 124.852642,115.200906 125.366048,115.178839 C125.947325,115.163398 126.51797,115.017663 127.036832,114.752143 L127.994155,117.722347 C127.088951,118.10489 126.119601,118.308208 125.138663,118.321277 C122.113457,118.436285 120.142788,116.680053 120.142788,113.177035 L120.142788,107.089394 L117.546537,107.089394 L117.546537,104.094744 L120.142788,104.094744 L120.142788,100.46005 L123.613977,100.09058 L123.613977,100.09058 Z M141.969534,116.352808 C140.571434,117.829832 138.621532,118.64061 136.600726,118.585184 C132.545147,118.585184 129.20248,116.122792 129.20248,111.126338 C129.20248,106.129328 132.560526,103.667493 136.600726,103.667493 C138.494683,103.601358 140.325659,104.360431 141.629006,105.75208 L139.455119,108.065572 C138.688801,107.359686 137.6931,106.962728 136.656748,106.94994 C134.493656,106.909363 132.7074,108.649879 132.666529,110.837985 L132.66598,110.871876 L132.66598,111.167452 C132.590774,112.2597 132.980168,113.332465 133.736232,114.115954 C134.492296,114.899444 135.543088,115.319106 136.624343,115.2694 C137.755955,115.311811 138.856281,114.888677 139.674265,114.096542 L141.969534,116.352808 L141.969534,116.352808 Z M146.941792,98.1460023 L146.941792,105.94876 C147.967221,104.558704 149.61012,103.777132 151.32252,103.864728 C155.280883,103.864728 157,106.58047 157,110.724088 L157,118.108484 L153.552978,118.108484 L153.552978,110.724088 C153.552978,108.156134 152.222722,107.064948 150.389363,107.064948 C149.443392,107.094836 148.547906,107.503646 147.899913,108.201439 C147.251921,108.899232 146.904507,109.828844 146.934102,110.785759 L146.934102,118.124597 L143.48708,118.124597 L143.48708,98.1460023 L146.941792,98.1460023 L146.941792,98.1460023 Z" id="Combined-Shape"></path>
            </g>
        </g>
    </g>
</svg>