<?xml version="1.0" encoding="UTF-8"?>
<svg width="42px" height="46px" viewBox="0 0 42 46" version="1.1" xmlns="http://www.w3.org/2000/svg" xmlns:xlink="http://www.w3.org/1999/xlink">
    <!-- Generator: Sketch 60 (88103) - https://sketch.com -->
    <title>graph-ql</title>
    <desc>Created with Sketch.</desc>
    <g id="Screens" stroke="none" stroke-width="1" fill="none" fill-rule="evenodd" fill-opacity="0.4">
        <g id="Screens-/-Homepage" transform="translate(-760.000000, -2392.000000)" fill="#1B2448" fill-rule="nonzero">
            <g id="Integrations" transform="translate(432.000000, 2291.000000)">
                <g id="Stacked-Group" transform="translate(0.000000, 97.000000)">
                    <path d="M349,4 C351.325834,4 353.205783,5.83248212 353.205783,8.09959142 C353.205783,8.50706769 353.145053,8.90050366 353.031918,9.27178314 L362.736407,14.7318475 C363.009476,14.4500516 363.328381,14.2012273 363.690113,13.9964249 C365.702622,12.8687436 368.269475,13.5383044 369.438418,15.5 C370.595309,17.4616956 369.908405,19.9637385 367.895895,21.1031665 C367.536698,21.304438 367.159457,21.4484564 366.775478,21.5380938 L366.775466,32.4647349 C367.15529,32.5545606 367.528401,32.6976659 367.883844,32.8968335 C369.908405,34.0362615 370.595309,36.5383044 369.426367,38.5 C368.269475,40.4616956 365.690571,41.1312564 363.678062,40.0035751 C363.277392,39.7790657 362.929266,39.4996157 362.63777,39.1805198 L352.993559,44.6090592 C353.131269,45.0149285 353.205783,45.4490551 353.205783,45.9004086 C353.205783,48.1557712 351.325834,50 349,50 C346.674166,50 344.794217,48.1675179 344.794217,45.9004086 C344.794217,45.4976577 344.853547,45.1086234 344.964167,44.7411427 L335.262841,39.2813059 C334.992622,39.5576948 334.678031,39.8019651 334.321938,40.0035751 C332.297378,41.1312564 329.730525,40.4616956 328.573633,38.5 C327.416742,36.5383044 328.103646,34.0362615 330.116156,32.8968335 C330.471912,32.6974906 330.84499,32.5543087 331.224607,32.4644978 L331.224522,21.5380938 C330.840543,21.4484564 330.463302,21.304438 330.104105,21.1031665 C328.091595,19.9754852 327.404691,17.4616956 328.561582,15.5 C329.718474,13.5383044 332.297378,12.8687436 334.309887,13.9964249 C334.669884,14.200245 334.987464,14.4476658 335.259661,14.7277952 L344.96627,9.26581957 C344.854299,8.89629163 344.794217,8.50488673 344.794217,8.09959142 C344.794217,5.83248212 346.674166,4 349,4 Z M361.696447,37.4318511 L336.302542,37.431568 C336.289209,37.4841578 336.274816,37.5364899 336.259371,37.5885316 L345.970308,43.054673 C346.734908,42.2813364 347.808993,41.8008172 349,41.8008172 C350.233147,41.8008172 351.340952,42.3159413 352.10968,43.1378508 L361.773855,37.6997361 C361.744977,37.6113146 361.719159,37.5219639 361.696447,37.4318511 Z M349,12.1991828 C348.593469,12.1991828 348.200561,12.1431982 347.828933,12.0386936 L335.125144,33.4848068 C335.40801,33.7478572 335.658032,34.053985 335.86446,34.4004086 C336.069019,34.7472709 336.215933,35.1110269 336.308066,35.4811567 L361.692098,35.4814071 C361.784241,35.1109641 361.931102,34.7470661 362.13554,34.4004086 C362.341053,34.0519278 362.59144,33.7442229 362.875555,33.4801252 L350.176047,12.0372898 C349.80295,12.1426968 349.408347,12.1991828 349,12.1991828 Z M345.974245,10.9493039 L336.250568,16.4224694 C336.553332,17.4532932 336.443671,18.5970119 335.852409,19.5995914 C335.260383,20.6034667 334.295966,21.2689625 333.225628,21.5283881 L333.225899,32.4698299 C333.281153,32.4831399 333.33613,32.4975349 333.390793,32.5130053 L346.094873,11.0661775 C346.053862,11.0280129 346.013644,10.9890465 345.974245,10.9493039 Z M351.908202,11.0633136 L364.612573,32.5107514 C364.666181,32.4957118 364.720091,32.481703 364.77427,32.4687338 L364.774372,21.5283881 C363.704034,21.2689625 362.739617,20.6034667 362.147591,19.5995914 C361.557476,18.598958 361.447095,17.4577328 361.747674,16.4284735 L352.021812,10.9532755 C351.98466,10.9906511 351.946782,11.0273376 351.908202,11.0633136 Z" id="graph-ql"></path>
                </g>
            </g>
        </g>
    </g>
</svg>