<?xml version="1.0" encoding="UTF-8"?>
<svg width="181px" height="32px" viewBox="0 0 181 32" version="1.1" xmlns="http://www.w3.org/2000/svg" xmlns:xlink="http://www.w3.org/1999/xlink">
    <!-- Generator: Sketch 60 (88103) - https://sketch.com -->
    <title>HONEYWELL</title>
    <desc>Created with Sketch.</desc>
    <g id="Screens" stroke="none" stroke-width="1" fill="none" fill-rule="evenodd" fill-opacity="0.4">
        <g id="Screens-/-Homepage" transform="translate(-1243.000000, -966.000000)" fill="#1B2448">
            <g id="Logos" transform="translate(505.000000, 966.000000)">
                <path d="M837.962786,7.51079883 L843.057934,16.2315663 L846.4547,7.51079883 L849.366213,7.51079883 L841.116006,27.6191285 C840.610535,28.9617027 839.094122,31.9395929 835.535606,31.979971 C831.917352,32.2424292 830.096737,29.8702116 830.197831,28.1036665 C830.085709,26.3187678 831.494594,24.9119556 833.109345,24.9541691 L833.293634,24.9547382 C835.059816,25.0061632 836.371869,26.3782644 836.263484,28.1036665 C836.588824,29.0121754 837.678803,28.9617027 838.204493,27.8613975 L838.204493,27.8613975 L839.418543,24.7119001 L829.469953,7.51079883 L837.962786,7.51079883 Z M830.198475,16.2322087 C830.289345,16.5558076 830.279594,17.0213324 830.224635,17.324468 L830.198475,17.4435538 L817.339291,17.4435538 L817.339291,20.5930512 C817.35951,22.0540069 818.513822,23.4011696 820.008178,23.5002796 C822.736835,23.4047092 825.193741,22.0863495 826.644672,20.0907381 L826.801709,19.8662441 L828.984425,20.8353203 C827.293395,23.677393 823.870896,25.6843717 820.008178,25.6816214 C814.213641,25.6843717 809.572498,21.4354867 809.575254,16.2322087 C809.572544,11.0371439 814.060227,6.84123646 819.719428,6.78309165 L820.008178,6.78371643 C825.661183,6.69928934 830.302326,10.9490919 830.198475,16.2322087 Z M785.069742,16.2319334 C785.113856,21.4352114 780.473631,25.685014 774.636819,25.6813457 C769.024252,25.685014 764.384028,21.4352114 764.446522,16.2319334 C764.384028,10.9488166 769.024252,6.69901404 774.636819,6.78435881 C780.473631,6.69901404 785.113856,10.9488166 785.069742,16.2319334 Z M899.590279,16.2322087 C899.556504,16.5558076 899.530469,17.0213324 899.406277,17.324468 L899.346733,17.4435538 L886.487549,17.4435538 L886.487549,20.5930512 C886.607943,22.0540069 887.763174,23.4011696 889.156437,23.5002796 C891.981692,23.4047092 894.442902,22.0863495 895.804196,20.0907381 L895.950887,19.8662441 L898.377148,20.8353203 C896.541828,23.677393 893.120249,25.6843717 889.156437,25.6816214 C883.461156,25.6843717 878.820932,21.4354867 878.724433,16.2322087 C878.819296,11.0386363 883.305166,6.84364729 888.867772,6.78314278 L889.156437,6.78371643 C894.910535,6.69928934 899.551679,10.9490919 899.590279,16.2322087 Z M909.052329,-8.52651283e-14 L909.052329,24.4691722 L902.016172,24.4691722 L902.016172,-8.52651283e-14 L909.052329,-8.52651283e-14 Z M919,-8.52651283e-14 L919,24.4691722 L912.20555,24.4691722 L912.20555,-8.52651283e-14 L919,-8.52651283e-14 Z M747.219792,0.00036707429 L747.219792,9.69112835 L752.800193,9.69112835 L752.800193,0.00036707429 L761.777359,0.00036707429 L761.777359,24.4695393 L752.800193,24.4695393 L752.800193,12.3560877 L747.219792,12.3560877 L747.219792,24.4695393 L738,24.4695393 L738,0.00036707429 L747.219792,0.00036707429 Z M795.502757,9.20668205 C800.426045,4.93669037 807.350999,7.35938068 807.391436,13.5675246 L807.391436,13.5675246 L807.391436,24.4696311 L799.870027,24.4696311 L799.870027,13.3252556 C799.870027,11.0943616 798.555802,10.8924707 797.443766,10.9025653 C796.331729,10.8924707 794.91641,12.1038159 795.017504,14.2943317 L795.017504,14.2943317 L795.017504,24.4696311 L787.496095,24.4696311 L787.496095,7.51079883 L795.017504,7.51079883 Z M856.644905,7.51079883 L860.284297,17.6851805 L863.681062,7.51079883 L868.776211,7.51079883 L872.415602,17.4438291 L875.569742,7.51079883 L878.723881,7.51079883 L872.900855,24.4696311 L867.56308,24.4696311 L864.166314,14.7788698 L860.769549,24.4696311 L855.431774,24.4696311 L849.366122,7.51079883 L856.644905,7.51079883 Z M774.636635,9.20668205 C773.324248,9.17731611 772.171774,10.3290117 772.210374,11.8716414 L772.210374,20.5924089 C772.171774,22.0542822 773.324248,23.2059778 774.636635,23.2582859 C776.172348,23.2059778 777.32666,22.0542822 777.305522,20.5924089 L777.305522,11.8716414 C777.32666,10.3290117 776.172348,9.17731611 774.636635,9.20668205 Z M820.008178,9.20668205 C818.571297,9.17844557 817.448806,10.2421669 817.346611,11.6954255 L817.339291,11.8716414 L817.339291,15.0211388 L822.434439,15.0211388 L822.434439,11.8716414 C822.515314,10.3290117 821.361002,9.17731611 820.008178,9.20668205 Z M889.156437,9.20668205 C887.818905,9.17849075 886.700743,10.2387657 886.506913,11.6884529 L886.487549,11.8716414 L886.487549,15.0211388 L891.826243,15.0211388 L891.826243,11.8716414 C891.763748,10.3290117 890.609436,9.17731611 889.156437,9.20668205 Z" id="HONEYWELL"/>
            </g>
        </g>
    </g>
</svg>