<?xml version="1.0" encoding="UTF-8"?>
<svg width="130px" height="22px" viewBox="0 0 130 22" version="1.1" xmlns="http://www.w3.org/2000/svg" xmlns:xlink="http://www.w3.org/1999/xlink">
    <!-- Generator: Sketch 60 (88103) - https://sketch.com -->
    <title>IKEA</title>
    <desc>Created with Sketch.</desc>
    <g id="Screens" stroke="none" stroke-width="1" fill="none" fill-rule="evenodd" fill-opacity="0.4">
        <g id="Screens-/-Homepage" transform="translate(-1020.000000, -971.000000)" fill="#1B2448">
            <g id="Logos" transform="translate(505.000000, 966.000000)">
                <path d="M530.06757,5.00307889 C530.474783,5.00307889 530.637032,5.16112855 530.4207,5.39717675 C530.249968,5.58191012 529.958344,6.84014965 529.958344,8.17946661 L529.958344,8.17946661 L529.958344,23.8233044 C529.958344,25.1626213 530.249968,26.4208609 530.4207,26.6055942 C530.637032,26.8426687 530.474783,26.9996921 530.06757,26.9996921 L530.06757,26.9996921 L515.448192,26.9996921 C515.042039,26.9996921 514.87979,26.8426687 515.096122,26.6055942 C515.265794,26.4208609 515.557418,25.1626213 515.557418,23.8233044 L515.557418,23.8233044 L515.557418,8.17946661 C515.557418,6.84014965 515.265794,5.58191012 515.096122,5.39717675 C514.87979,5.16112855 515.042039,5.00307889 515.448192,5.00307889 L515.448192,5.00307889 Z M552.190064,5.00338678 C552.597278,5.00338678 552.760587,5.16041015 552.543195,5.39645834 C552.372462,5.58221801 552.081898,6.84045754 552.081898,8.17977449 L552.077656,12.8555814 L557.39794,5.86958104 C557.615332,5.65919025 557.506106,5.37080093 557.506106,5.23943498 C557.506106,5.10806902 557.506106,5.00338678 557.615332,5.00338678 L572.043829,5.00338678 C572.23365,5.00338678 572.153056,5.13475273 572.071401,5.23943498 L566.130754,13.2712315 C565.860339,13.6129882 565.914422,13.9280613 566.185898,14.2687917 L574.34925,26.7629255 C574.430905,26.868634 574.511499,27 574.322739,27 L556.69274,27 C556.584574,27 556.584574,26.8942915 556.584574,26.7629255 C556.584574,26.6325858 556.854989,25.5036597 556.638657,25.2932689 L552.081898,18.5453693 L552.081898,23.8236123 C552.081898,25.1629292 552.372462,26.4211688 552.543195,26.6059021 C552.760587,26.8419503 552.597278,27 552.190064,27 L538.005471,27 C537.599318,27 537.436009,26.8419503 537.653401,26.6059021 C537.823073,26.4211688 538.114697,25.1629292 538.114697,23.8236123 L538.114697,8.17977449 C538.114697,6.84045754 537.823073,5.58221801 537.653401,5.39645834 C537.436009,5.16041015 537.599318,5.00338678 538.005471,5.00338678 L552.190064,5.00338678 Z M604.73234,5 L604.73234,11.0941487 C604.73234,11.4841414 604.572212,11.6401385 604.330429,11.4318003 C604.140608,11.2696454 602.854281,10.9904928 601.485239,10.9904928 L601.485239,10.9904928 L593.417327,10.9904928 C593.045108,10.9904928 593.010114,11.2973554 593.010114,11.3856169 L593.010114,11.3856169 L593.009053,12.4529653 C593.009053,12.5412268 593.044048,12.8470632 593.416266,12.8470632 L593.416266,12.8470632 L599.1339,12.8475975 C599.824646,12.8537355 601.705645,12.9077227 601.874424,12.7434072 C602.054701,12.5689368 602.277395,12.6777242 602.277395,13.0071654 L602.277395,13.0071654 L602.277395,18.2792506 C602.277395,18.6086918 602.054701,18.7174792 601.875485,18.5430088 C601.696268,18.3695647 599.610361,18.4383266 599.030294,18.4383266 L599.030294,18.4383266 L593.417327,18.4383266 C593.044048,18.4383266 593.009053,18.7451892 593.009053,18.8334507 L593.009053,18.8334507 L593.007993,20.0393491 C593.007993,20.1276106 593.042988,20.4344733 593.416266,20.4344733 L593.416266,20.4344733 L601.484178,20.4344733 C602.85322,20.4344733 604.139548,20.1563469 604.329368,19.9921395 C604.570091,19.7848276 604.731279,19.9408247 604.731279,20.3297911 L604.731279,20.3297911 L604.731279,26.8046958 L579.317569,26.8057221 C578.914598,26.8057221 578.75447,26.649725 578.969741,26.4167557 C579.137293,26.2330486 579.425735,24.9881509 579.425735,23.6632021 L579.425735,23.6632021 L579.425735,8.18357179 C579.425735,6.85964929 579.137293,5.61372532 578.969741,5.43001824 C578.75447,5.19602263 578.915658,5 579.31863,5 L579.31863,5 L604.73234,5 Z M636.074183,5.07943535 C636.437918,5.07943535 636.619255,5.19643315 636.407165,5.69418696 C636.195075,6.19194077 636.317027,6.74819348 636.437918,7.07045059 C636.555787,7.38465127 644.583141,25.8464177 644.984435,26.7693096 L645,26.8051063 L629.811159,26.8051063 C629.523777,26.8051063 629.463331,26.6737403 629.55453,26.4838755 C629.644668,26.2940106 629.644668,25.8537294 629.508931,25.5324986 L629.508931,25.5324986 L628.857814,23.4388537 C628.646784,22.8528384 628.344555,22.7656032 627.829176,22.7656032 L627.829176,22.7656032 L622.489805,22.7656032 C621.975486,22.7656032 621.672197,22.8528384 621.461168,23.4388537 L621.461168,23.4388537 L620.810051,25.5324986 C620.674313,25.8537294 620.674313,26.2940106 620.765512,26.4838755 C620.85565,26.6737403 620.795204,26.8051063 620.507822,26.8051063 L620.507822,26.8051063 L608.360355,26.8051063 C608.360355,26.8051063 615.833354,7.3927077 615.954245,7.07045059 C616.075137,6.74819348 616.196028,6.19194077 615.984998,5.69418696 C615.772908,5.19643315 615.954245,5.07943535 616.316919,5.07943535 L616.316919,5.07943535 Z M624.819616,14.9472763 C624.706148,14.9472763 624.675395,15.0355378 624.622372,15.1227731 L624.622372,15.1227731 L623.306352,18.1380322 C623.25333,18.2704245 623.275599,18.4602893 623.46542,18.4756838 L623.46542,18.4756838 L626.173812,18.4756838 C626.361512,18.4602893 626.384842,18.2704245 626.331819,18.1380322 L626.331819,18.1380322 L625.0158,15.1227731 C624.962777,15.0355378 624.933084,14.9472763 624.819616,14.9472763 Z" id="IKEA"></path>
            </g>
        </g>
    </g>
</svg>