<?xml version="1.0" encoding="UTF-8"?>
<svg width="161px" height="30px" viewBox="0 0 161 30" version="1.1" xmlns="http://www.w3.org/2000/svg" xmlns:xlink="http://www.w3.org/1999/xlink">
    <!-- Generator: Sketch 60 (88103) - https://sketch.com -->
    <title>MAZDA</title>
    <desc>Created with Sketch.</desc>
    <g id="Screens" stroke="none" stroke-width="1" fill="none" fill-rule="evenodd" fill-opacity="0.4">
        <g id="Screens-/-Homepage" transform="translate(-757.000000, -967.000000)" fill="#1B2448">
            <g id="Logos" transform="translate(505.000000, 966.000000)">
                <path d="M286.786433,6.44416472 C286.645356,6.28681892 286.505196,6.128574 286.365035,5.9712282 C282.505576,1.88832944 276.17544,1 270.870401,1 C265.504901,1 258.99338,1.88832944 255.196215,6.20769646 C255.134837,6.28681892 255.075292,6.36594138 255.01483,6.44416472 C253.14602,8.63351915 252,11.7696457 252,15.9703291 C252,28.9293293 262.731916,31 270.870401,31 C279.070263,31 289.801263,28.9293293 289.801263,15.9703291 C289.801263,11.7696457 288.655243,8.63351915 286.786433,6.44416472 M283.272337,8.65419889 C283.217372,8.56878259 283.163323,8.4833663 283.109275,8.39705089 C280.516759,4.60996224 275.813587,3.72253192 270.870401,3.72253192 C265.927215,3.72253192 261.104036,4.66930408 258.571982,8.51573458 C258.48129,8.66948391 258.390597,8.82323323 258.299905,8.97788168 C262.649469,11.4180903 267.585326,11.4630462 270.870401,17.6274051 C273.88798,11.2742313 278.877886,11.1843194 283.272337,8.65419889 M264.299335,15.7932027 C267.193242,16.9764431 269.122514,18.6335192 270.870401,22.3621651 C272.619204,18.6335192 274.488014,16.7399748 277.441467,15.5567344 C279.91764,14.6863873 282.393813,13.8160403 284.869987,12.9447941 C284.88556,13.0068333 284.901134,13.0688725 284.917623,13.1309117 C285.038546,13.9590002 285.098091,14.9651142 285.098091,15.9703291 C285.098091,26.2661392 278.165173,28.337709 270.870401,28.2783672 C263.575629,28.337709 256.703172,26.2661392 256.703172,15.9703291 C256.703172,15.2015824 256.703172,14.4319367 256.823179,13.7818738 C256.858906,13.6362165 256.895549,13.4905593 256.931277,13.3458011 C259.38638,14.1613019 261.843316,14.9777019 264.299335,15.7932027 M383.732969,19.9252832 L377.78484,19.9252832 L377.78484,11.7513936 L383.812668,11.7513936 C383.812668,11.7513936 386.6681,11.9851645 386.6681,15.566355 C386.6681,19.1475454 385.318709,19.9252832 383.732969,19.9252832 L383.732969,19.9252832 Z M337.571529,17.7458191 L344.473301,17.7458191 L344.473301,20.3155008 L337.49183,20.3155008 C337.49183,20.3155008 336.065488,20.392825 336.065488,18.9910987 C336.065488,17.8240424 337.175781,17.7458191 337.571529,17.7458191 L337.571529,17.7458191 Z M399.992532,17.7458191 L406.813689,17.7458191 L406.813689,20.3155008 L399.83405,20.3155008 C399.83405,20.3155008 398.406792,20.392825 398.406792,18.9910987 C398.406792,17.8240424 399.595868,17.7458191 399.992532,17.7458191 L399.992532,17.7458191 Z M366.363113,6.30273332 L359.30469,12.0633879 L351.531723,12.0633879 L351.531723,6.30273332 L366.363113,6.30273332 Z M355.497448,25.6077144 L362.55587,19.9252832 L370.328838,19.9252832 L370.328838,25.6077144 L355.497448,25.6077144 Z M413,11.6740694 L413,25.6077144 L397.692247,25.6077144 C397.692247,25.6077144 392.695013,25.5303902 391.9823,20.6256968 C390.792307,24.2077864 388.254757,25.5303902 385.556891,25.5303902 L371.439131,25.5303902 L371.439131,11.3629743 L353.435344,25.6077144 L335.192461,25.6077144 C335.192461,25.6077144 332.020064,25.6077144 330.433408,23.039831 L330.433408,25.6077144 L323.850433,25.6077144 L323.850433,14.5539471 C323.850433,14.5539471 324.247097,12.0633879 321.153483,12.0633879 L319.012596,12.0633879 L319.012596,25.6077144 L312.667803,25.6077144 L312.667803,12.0633879 L307.987533,12.0633879 L307.987533,25.6077144 L301.324859,25.6077144 L301.324859,6.30273332 L323.374985,6.30273332 C323.374985,6.30273332 330.433408,5.83609063 330.433408,13.5424384 L330.433408,15.7219025 C332.020064,13.3086675 335.192461,13.4642151 336.22397,13.4642151 L344.551168,13.4642151 C344.551168,13.4642151 344.948748,11.5185218 341.933918,11.5185218 L331.544617,11.5185218 L331.544617,6.30273332 L344.630867,6.30273332 C344.630867,6.30273332 350.501129,6.06896242 350.501129,11.6740694 L350.501129,20.2372775 L368.425216,6.30273332 L386.033254,6.30273332 C386.033254,6.30273332 392.774712,6.06896242 392.774712,14.8659414 L392.774712,15.8001259 C394.361368,13.3086675 397.612548,13.4642151 398.644058,13.4642151 L406.972172,13.4642151 C406.972172,13.4642151 407.448535,11.5185218 404.434621,11.5185218 L394.044403,11.5185218 L394.044403,6.30273332 L407.130654,6.30273332 C407.130654,6.30273332 413,6.06896242 413,11.6740694 L413,11.6740694 Z" id="MAZDA"></path>
            </g>
        </g>
    </g>
</svg>