<svg xmlns="http://www.w3.org/2000/svg" viewBox="0 0 1920 1080" width="1920" height="1080" style="width: 100%; height: 100%; transform: translate3d(0px, 0px, 0px);" preserveAspectRatio="xMidYMid meet"><defs><clipPath id="__lottie_element_167"><rect width="1920" height="1080" x="0" y="0"></rect></clipPath><linearGradient id="__lottie_element_171" spreadMethod="pad" gradientUnits="userSpaceOnUse" x1="-155.19891357421875" y1="0.2256445437669754" x2="-129.43002319335938" y2="-0.038656946271657944"><stop offset="0%" stop-color="rgb(243,102,63)"></stop><stop offset="47%" stop-color="rgb(243,102,63)"></stop><stop offset="100%" stop-color="rgb(243,102,63)"></stop></linearGradient><mask id="__lottie_element_173"><path fill="url(#__lottie_element_172)" d=" M145.99400329589844,-3.4079999923706055 C145.99400329589844,-3.4079999923706055 -145.99400329589844,-3.4079999923706055 -145.99400329589844,-3.4079999923706055 C-147.87600708007812,-3.4079999923706055 -149.40199279785156,-1.8819999694824219 -149.40199279785156,0 C-149.40199279785156,1.8819999694824219 -147.87600708007812,3.4079999923706055 -145.99400329589844,3.4079999923706055 C-145.99400329589844,3.4079999923706055 145.99400329589844,3.4079999923706055 145.99400329589844,3.4079999923706055 C147.87600708007812,3.4079999923706055 149.40199279785156,1.8819999694824219 149.40199279785156,0 C149.40199279785156,-1.8819999694824219 147.87600708007812,-3.4079999923706055 145.99400329589844,-3.4079999923706055z"></path></mask><linearGradient id="__lottie_element_172" spreadMethod="pad" gradientUnits="userSpaceOnUse" x1="-155.19891357421875" y1="0.2256445437669754" x2="-129.43002319335938" y2="-0.038656946271657944"><stop stop-color="rgb(255,255,255)" offset="0%" stop-opacity="1"></stop><stop stop-color="rgb(255,255,255)" offset="54%" stop-opacity="0.5"></stop><stop stop-color="rgb(255,255,255)" offset="100%" stop-opacity="0"></stop></linearGradient><linearGradient id="__lottie_element_177" spreadMethod="pad" gradientUnits="userSpaceOnUse" x1="-155.26170349121094" y1="0.2220422625541687" x2="-137.4605255126953" y2="0.08903907984495163"><stop offset="0%" stop-color="rgb(243,102,63)"></stop><stop offset="47%" stop-color="rgb(243,102,63)"></stop><stop offset="100%" stop-color="rgb(243,102,63)"></stop></linearGradient><mask id="__lottie_element_179"><path fill="url(#__lottie_element_178)" d=" M145.99400329589844,-3.4079999923706055 C145.99400329589844,-3.4079999923706055 -145.99400329589844,-3.4079999923706055 -145.99400329589844,-3.4079999923706055 C-147.87600708007812,-3.4079999923706055 -149.40199279785156,-1.8819999694824219 -149.40199279785156,0 C-149.40199279785156,1.8819999694824219 -147.87600708007812,3.4079999923706055 -145.99400329589844,3.4079999923706055 C-145.99400329589844,3.4079999923706055 145.99400329589844,3.4079999923706055 145.99400329589844,3.4079999923706055 C147.87600708007812,3.4079999923706055 149.40199279785156,1.8819999694824219 149.40199279785156,0 C149.40199279785156,-1.8819999694824219 147.87600708007812,-3.4079999923706055 145.99400329589844,-3.4079999923706055z"></path></mask><linearGradient id="__lottie_element_178" spreadMethod="pad" gradientUnits="userSpaceOnUse" x1="-155.26170349121094" y1="0.2220422625541687" x2="-137.4605255126953" y2="0.08903907984495163"><stop stop-color="rgb(255,255,255)" offset="0%" stop-opacity="1"></stop><stop stop-color="rgb(255,255,255)" offset="54%" stop-opacity="0.5"></stop><stop stop-color="rgb(255,255,255)" offset="100%" stop-opacity="0"></stop></linearGradient><linearGradient id="__lottie_element_183" spreadMethod="pad" gradientUnits="userSpaceOnUse" x1="-156.765625" y1="0.26724761724472046" x2="135.09237670898438" y2="-4.129715919494629"><stop offset="0%" stop-color="rgb(243,102,63)"></stop><stop offset="47%" stop-color="rgb(243,102,63)"></stop><stop offset="100%" stop-color="rgb(243,102,63)"></stop></linearGradient><mask id="__lottie_element_185"><path fill="url(#__lottie_element_184)" d=" M145.99400329589844,-3.4079999923706055 C145.99400329589844,-3.4079999923706055 -145.99400329589844,-3.4079999923706055 -145.99400329589844,-3.4079999923706055 C-147.87600708007812,-3.4079999923706055 -149.40199279785156,-1.8819999694824219 -149.40199279785156,0 C-149.40199279785156,1.8819999694824219 -147.87600708007812,3.4079999923706055 -145.99400329589844,3.4079999923706055 C-145.99400329589844,3.4079999923706055 145.99400329589844,3.4079999923706055 145.99400329589844,3.4079999923706055 C147.87600708007812,3.4079999923706055 149.40199279785156,1.8819999694824219 149.40199279785156,0 C149.40199279785156,-1.8819999694824219 147.87600708007812,-3.4079999923706055 145.99400329589844,-3.4079999923706055z"></path></mask><linearGradient id="__lottie_element_184" spreadMethod="pad" gradientUnits="userSpaceOnUse" x1="-156.765625" y1="0.26724761724472046" x2="135.09237670898438" y2="-4.129715919494629"><stop stop-color="rgb(255,255,255)" offset="0%" stop-opacity="1"></stop><stop stop-color="rgb(255,255,255)" offset="54%" stop-opacity="0.5"></stop><stop stop-color="rgb(255,255,255)" offset="100%" stop-opacity="0"></stop></linearGradient><linearGradient id="__lottie_element_189" spreadMethod="pad" gradientUnits="userSpaceOnUse" x1="-156.69973754882812" y1="-0.135104700922966" x2="-80.501953125" y2="-0.12392247468233109"><stop offset="0%" stop-color="rgb(243,102,63)"></stop><stop offset="47%" stop-color="rgb(243,102,63)"></stop><stop offset="100%" stop-color="rgb(243,102,63)"></stop></linearGradient><mask id="__lottie_element_191"><path fill="url(#__lottie_element_190)" d=" M145.99400329589844,-3.4079999923706055 C145.99400329589844,-3.4079999923706055 -145.99400329589844,-3.4079999923706055 -145.99400329589844,-3.4079999923706055 C-147.87600708007812,-3.4079999923706055 -149.40199279785156,-1.8819999694824219 -149.40199279785156,0 C-149.40199279785156,1.8819999694824219 -147.87600708007812,3.4079999923706055 -145.99400329589844,3.4079999923706055 C-145.99400329589844,3.4079999923706055 145.99400329589844,3.4079999923706055 145.99400329589844,3.4079999923706055 C147.87600708007812,3.4079999923706055 149.40199279785156,1.8819999694824219 149.40199279785156,0 C149.40199279785156,-1.8819999694824219 147.87600708007812,-3.4079999923706055 145.99400329589844,-3.4079999923706055z"></path></mask><linearGradient id="__lottie_element_190" spreadMethod="pad" gradientUnits="userSpaceOnUse" x1="-156.69973754882812" y1="-0.135104700922966" x2="-80.501953125" y2="-0.12392247468233109"><stop stop-color="rgb(255,255,255)" offset="0%" stop-opacity="1"></stop><stop stop-color="rgb(255,255,255)" offset="54%" stop-opacity="0.5"></stop><stop stop-color="rgb(255,255,255)" offset="100%" stop-opacity="0"></stop></linearGradient><linearGradient id="__lottie_element_196" spreadMethod="pad" gradientUnits="userSpaceOnUse" x1="-470.0282287597656" y1="-3.201908826828003" x2="52.780277252197266" y2="-0.4185812175273895"><stop offset="0%" stop-color="rgb(243,102,63)"></stop><stop offset="47%" stop-color="rgb(243,102,63)"></stop><stop offset="100%" stop-color="rgb(243,102,63)"></stop></linearGradient><mask id="__lottie_element_198"><path fill="url(#__lottie_element_197)" d=" M145.99400329589844,-3.4079999923706055 C145.99400329589844,-3.4079999923706055 -465.9939880371094,-3.4079999923706055 -465.9939880371094,-3.4079999923706055 C-467.8760070800781,-3.4079999923706055 -469.4020080566406,-1.8819999694824219 -469.4020080566406,0 C-469.4020080566406,1.8819999694824219 -467.8760070800781,3.4079999923706055 -465.9939880371094,3.4079999923706055 C-465.9939880371094,3.4079999923706055 145.99400329589844,3.4079999923706055 145.99400329589844,3.4079999923706055 C147.87600708007812,3.4079999923706055 149.40199279785156,1.8819999694824219 149.40199279785156,0 C149.40199279785156,-1.8819999694824219 147.87600708007812,-3.4079999923706055 145.99400329589844,-3.4079999923706055z"></path></mask><linearGradient id="__lottie_element_197" spreadMethod="pad" gradientUnits="userSpaceOnUse" x1="-470.0282287597656" y1="-3.201908826828003" x2="52.780277252197266" y2="-0.4185812175273895"><stop stop-color="rgb(255,255,255)" offset="0%" stop-opacity="1"></stop><stop stop-color="rgb(255,255,255)" offset="54%" stop-opacity="0.5"></stop><stop stop-color="rgb(255,255,255)" offset="100%" stop-opacity="0"></stop></linearGradient><linearGradient id="__lottie_element_202" spreadMethod="pad" gradientUnits="userSpaceOnUse" x1="-563.6522827148438" y1="-0.09714434295892715" x2="-463.3026123046875" y2="-1.1880353689193726"><stop offset="0%" stop-color="rgb(243,102,63)"></stop><stop offset="47%" stop-color="rgb(243,102,63)"></stop><stop offset="100%" stop-color="rgb(243,102,63)"></stop></linearGradient><mask id="__lottie_element_204"><path fill="url(#__lottie_element_203)" d=" M145.99400329589844,-3.4079999923706055 C145.99400329589844,-3.4079999923706055 -545.9940185546875,-3.4079999923706055 -545.9940185546875,-3.4079999923706055 C-547.8759765625,-3.4079999923706055 -549.4019775390625,-1.8819999694824219 -549.4019775390625,0 C-549.4019775390625,1.8819999694824219 -547.8759765625,3.4079999923706055 -545.9940185546875,3.4079999923706055 C-545.9940185546875,3.4079999923706055 145.99400329589844,3.4079999923706055 145.99400329589844,3.4079999923706055 C147.87600708007812,3.4079999923706055 149.40199279785156,1.8819999694824219 149.40199279785156,0 C149.40199279785156,-1.8819999694824219 147.87600708007812,-3.4079999923706055 145.99400329589844,-3.4079999923706055z"></path></mask><linearGradient id="__lottie_element_203" spreadMethod="pad" gradientUnits="userSpaceOnUse" x1="-563.6522827148438" y1="-0.09714434295892715" x2="-463.3026123046875" y2="-1.1880353689193726"><stop stop-color="rgb(255,255,255)" offset="0%" stop-opacity="1"></stop><stop stop-color="rgb(255,255,255)" offset="54%" stop-opacity="0.5"></stop><stop stop-color="rgb(255,255,255)" offset="100%" stop-opacity="0"></stop></linearGradient><linearGradient id="__lottie_element_208" spreadMethod="pad" gradientUnits="userSpaceOnUse" x1="-156.77700805664062" y1="0.2681269943714142" x2="374.698486328125" y2="0.02252740040421486"><stop offset="0%" stop-color="rgb(243,102,63)"></stop><stop offset="47%" stop-color="rgb(243,102,63)"></stop><stop offset="100%" stop-color="rgb(243,102,63)"></stop></linearGradient><mask id="__lottie_element_210"><path fill="url(#__lottie_element_209)" d=" M565.9940185546875,-3.4079999923706055 C565.9940185546875,-3.4079999923706055 -145.99400329589844,-3.4079999923706055 -145.99400329589844,-3.4079999923706055 C-147.87600708007812,-3.4079999923706055 -149.40199279785156,-1.8819999694824219 -149.40199279785156,0 C-149.40199279785156,1.8819999694824219 -147.87600708007812,3.4079999923706055 -145.99400329589844,3.4079999923706055 C-145.99400329589844,3.4079999923706055 565.9940185546875,3.4079999923706055 565.9940185546875,3.4079999923706055 C567.8759765625,3.4079999923706055 569.4019775390625,1.8819999694824219 569.4019775390625,0 C569.4019775390625,-1.8819999694824219 567.8759765625,-3.4079999923706055 565.9940185546875,-3.4079999923706055z"></path></mask><linearGradient id="__lottie_element_209" spreadMethod="pad" gradientUnits="userSpaceOnUse" x1="-156.77700805664062" y1="0.2681269943714142" x2="374.698486328125" y2="0.02252740040421486"><stop stop-color="rgb(255,255,255)" offset="0%" stop-opacity="1"></stop><stop stop-color="rgb(255,255,255)" offset="54%" stop-opacity="0.5"></stop><stop stop-color="rgb(255,255,255)" offset="100%" stop-opacity="0"></stop></linearGradient><linearGradient id="__lottie_element_215" spreadMethod="pad" gradientUnits="userSpaceOnUse" x1="-156.74044799804688" y1="0.2597985863685608" x2="340.41412353515625" y2="0.09738293290138245"><stop offset="0%" stop-color="rgb(243,102,63)"></stop><stop offset="47%" stop-color="rgb(243,102,63)"></stop><stop offset="100%" stop-color="rgb(243,102,63)"></stop></linearGradient><mask id="__lottie_element_217"><path fill="url(#__lottie_element_216)" d=" M565.9940185546875,-3.4079999923706055 C565.9940185546875,-3.4079999923706055 -145.99400329589844,-3.4079999923706055 -145.99400329589844,-3.4079999923706055 C-147.87600708007812,-3.4079999923706055 -149.40199279785156,-1.8819999694824219 -149.40199279785156,0 C-149.40199279785156,1.8819999694824219 -147.87600708007812,3.4079999923706055 -145.99400329589844,3.4079999923706055 C-145.99400329589844,3.4079999923706055 565.9940185546875,3.4079999923706055 565.9940185546875,3.4079999923706055 C567.8759765625,3.4079999923706055 569.4019775390625,1.8819999694824219 569.4019775390625,0 C569.4019775390625,-1.8819999694824219 567.8759765625,-3.4079999923706055 565.9940185546875,-3.4079999923706055z"></path></mask><linearGradient id="__lottie_element_216" spreadMethod="pad" gradientUnits="userSpaceOnUse" x1="-156.74044799804688" y1="0.2597985863685608" x2="340.41412353515625" y2="0.09738293290138245"><stop stop-color="rgb(255,255,255)" offset="0%" stop-opacity="1"></stop><stop stop-color="rgb(255,255,255)" offset="54%" stop-opacity="0.5"></stop><stop stop-color="rgb(255,255,255)" offset="100%" stop-opacity="0"></stop></linearGradient></defs><g clip-path="url(#__lottie_element_167)"><g style="display: block;" transform="matrix(1,0,0,1,984.5,550.5)" opacity="0.9405000000000766"><g opacity="1" transform="matrix(0.800000011920929,0,0,0.800000011920929,-551.1240234375,151.9759979248047)"><path fill="rgb(255,255,255)" fill-opacity="1" d=" M0,-3.0899999141693115 C-1.7070000171661377,-3.0899999141693115 -3.0899999141693115,-1.7070000171661377 -3.0899999141693115,0 C-3.0899999141693115,1.7070000171661377 -1.7070000171661377,3.0899999141693115 0,3.0899999141693115 C1.7070000171661377,3.0899999141693115 3.0899999141693115,1.7070000171661377 3.0899999141693115,0 C3.0899999141693115,-1.7070000171661377 1.7070000171661377,-3.0899999141693115 0,-3.0899999141693115z"></path></g><g opacity="1" transform="matrix(0.5,0,0,0.5,-608.1010131835938,-128.0070037841797)"><path fill="rgb(255,255,255)" fill-opacity="1" d=" M0,-3.0899999141693115 C-1.7070000171661377,-3.0899999141693115 -3.0899999141693115,-1.7070000171661377 -3.0899999141693115,0 C-3.0899999141693115,1.7070000171661377 -1.7070000171661377,3.0899999141693115 0,3.0899999141693115 C1.7070000171661377,3.0899999141693115 3.0899999141693115,1.7070000171661377 3.0899999141693115,0 C3.0899999141693115,-1.7070000171661377 1.7070000171661377,-3.0899999141693115 0,-3.0899999141693115z"></path></g><g opacity="1" transform="matrix(0.30000001192092896,0,0,0.30000001192092896,797.2000122070312,423.15301513671875)"><path fill="rgb(255,255,255)" fill-opacity="1" d=" M0,-3.0899999141693115 C-1.7070000171661377,-3.0899999141693115 -3.0899999141693115,-1.7070000171661377 -3.0899999141693115,0 C-3.0899999141693115,1.7070000171661377 -1.7070000171661377,3.0899999141693115 0,3.0899999141693115 C1.7070000171661377,3.0899999141693115 3.0899999141693115,1.7070000171661377 3.0899999141693115,0 C3.0899999141693115,-1.7070000171661377 1.7070000171661377,-3.0899999141693115 0,-3.0899999141693115z"></path></g><g opacity="1" transform="matrix(0.5,0,0,0.5,615.2860107421875,-247.8509979248047)"><path fill="rgb(255,255,255)" fill-opacity="1" d=" M0,-3.0899999141693115 C-1.7070000171661377,-3.0899999141693115 -3.0899999141693115,-1.7070000171661377 -3.0899999141693115,0 C-3.0899999141693115,1.7070000171661377 -1.7070000171661377,3.0899999141693115 0,3.0899999141693115 C1.7070000171661377,3.0899999141693115 3.0899999141693115,1.7070000171661377 3.0899999141693115,0 C3.0899999141693115,-1.7070000171661377 1.7070000171661377,-3.0899999141693115 0,-3.0899999141693115z"></path></g><g opacity="1" transform="matrix(0.800000011920929,0,0,0.800000011920929,774.9619750976562,1.1710000038146973)"><path fill="rgb(255,255,255)" fill-opacity="1" d=" M0,-3.0899999141693115 C-1.7070000171661377,-3.0899999141693115 -3.0899999141693115,-1.7070000171661377 -3.0899999141693115,0 C-3.0899999141693115,1.7070000171661377 -1.7070000171661377,3.0899999141693115 0,3.0899999141693115 C1.7070000171661377,3.0899999141693115 3.0899999141693115,1.7070000171661377 3.0899999141693115,0 C3.0899999141693115,-1.7070000171661377 1.7070000171661377,-3.0899999141693115 0,-3.0899999141693115z"></path></g><g opacity="1" transform="matrix(0.800000011920929,0,0,0.800000011920929,26.847000122070312,-13.217000007629395)"><path fill="rgb(255,255,255)" fill-opacity="1" d=" M0,-3.0899999141693115 C-1.7070000171661377,-3.0899999141693115 -3.0899999141693115,-1.7070000171661377 -3.0899999141693115,0 C-3.0899999141693115,1.7070000171661377 -1.7070000171661377,3.0899999141693115 0,3.0899999141693115 C1.7070000171661377,3.0899999141693115 3.0899999141693115,1.7070000171661377 3.0899999141693115,0 C3.0899999141693115,-1.7070000171661377 1.7070000171661377,-3.0899999141693115 0,-3.0899999141693115z"></path></g><g opacity="1" transform="matrix(0.800000011920929,0,0,0.800000011920929,-110.44300079345703,484.3349914550781)"><path fill="rgb(255,255,255)" fill-opacity="1" d=" M0,-3.0899999141693115 C-1.7070000171661377,-3.0899999141693115 -3.0899999141693115,-1.7070000171661377 -3.0899999141693115,0 C-3.0899999141693115,1.7070000171661377 -1.7070000171661377,3.0899999141693115 0,3.0899999141693115 C1.7070000171661377,3.0899999141693115 3.0899999141693115,1.7070000171661377 3.0899999141693115,0 C3.0899999141693115,-1.7070000171661377 1.7070000171661377,-3.0899999141693115 0,-3.0899999141693115z"></path></g><g opacity="1" transform="matrix(0.5,0,0,0.5,378.7080078125,327.7860107421875)"><path fill="rgb(255,255,255)" fill-opacity="1" d=" M0,-3.0899999141693115 C-1.7070000171661377,-3.0899999141693115 -3.0899999141693115,-1.7070000171661377 -3.0899999141693115,0 C-3.0899999141693115,1.7070000171661377 -1.7070000171661377,3.0899999141693115 0,3.0899999141693115 C1.7070000171661377,3.0899999141693115 3.0899999141693115,1.7070000171661377 3.0899999141693115,0 C3.0899999141693115,-1.7070000171661377 1.7070000171661377,-3.0899999141693115 0,-3.0899999141693115z"></path></g><g opacity="1" transform="matrix(0.5,0,0,0.5,790.1220092773438,-476.406005859375)"><path fill="rgb(255,255,255)" fill-opacity="1" d=" M0,-3.0899999141693115 C-1.7070000171661377,-3.0899999141693115 -3.0899999141693115,-1.7070000171661377 -3.0899999141693115,0 C-3.0899999141693115,1.7070000171661377 -1.7070000171661377,3.0899999141693115 0,3.0899999141693115 C1.7070000171661377,3.0899999141693115 3.0899999141693115,1.7070000171661377 3.0899999141693115,0 C3.0899999141693115,-1.7070000171661377 1.7070000171661377,-3.0899999141693115 0,-3.0899999141693115z"></path></g><g opacity="1" transform="matrix(0.30000001192092896,0,0,0.30000001192092896,-531.6439819335938,443.9809875488281)"><path fill="rgb(255,255,255)" fill-opacity="1" d=" M0,-3.0899999141693115 C-1.7070000171661377,-3.0899999141693115 -3.0899999141693115,-1.7070000171661377 -3.0899999141693115,0 C-3.0899999141693115,1.7070000171661377 -1.7070000171661377,3.0899999141693115 0,3.0899999141693115 C1.7070000171661377,3.0899999141693115 3.0899999141693115,1.7070000171661377 3.0899999141693115,0 C3.0899999141693115,-1.7070000171661377 1.7070000171661377,-3.0899999141693115 0,-3.0899999141693115z"></path></g><g opacity="1" transform="matrix(0.5,0,0,0.5,-373.6440124511719,-410.2650146484375)"><path fill="rgb(255,255,255)" fill-opacity="1" d=" M0,-3.0899999141693115 C-1.7070000171661377,-3.0899999141693115 -3.0899999141693115,-1.7070000171661377 -3.0899999141693115,0 C-3.0899999141693115,1.7070000171661377 -1.7070000171661377,3.0899999141693115 0,3.0899999141693115 C1.7070000171661377,3.0899999141693115 3.0899999141693115,1.7070000171661377 3.0899999141693115,0 C3.0899999141693115,-1.7070000171661377 1.7070000171661377,-3.0899999141693115 0,-3.0899999141693115z"></path></g><g opacity="1" transform="matrix(0.800000011920929,0,0,0.800000011920929,-842.8880004882812,-334.6719970703125)"><path fill="rgb(255,255,255)" fill-opacity="1" d=" M0,-3.0899999141693115 C-1.7070000171661377,-3.0899999141693115 -3.0899999141693115,-1.7070000171661377 -3.0899999141693115,0 C-3.0899999141693115,1.7070000171661377 -1.7070000171661377,3.0899999141693115 0,3.0899999141693115 C1.7070000171661377,3.0899999141693115 3.0899999141693115,1.7070000171661377 3.0899999141693115,0 C3.0899999141693115,-1.7070000171661377 1.7070000171661377,-3.0899999141693115 0,-3.0899999141693115z"></path></g><g opacity="1" transform="matrix(0.5,0,0,0.5,-881.9099731445312,340.8399963378906)"><path fill="rgb(255,255,255)" fill-opacity="1" d=" M0,-3.0899999141693115 C-1.7070000171661377,-3.0899999141693115 -3.0899999141693115,-1.7070000171661377 -3.0899999141693115,0 C-3.0899999141693115,1.7070000171661377 -1.7070000171661377,3.0899999141693115 0,3.0899999141693115 C1.7070000171661377,3.0899999141693115 3.0899999141693115,1.7070000171661377 3.0899999141693115,0 C3.0899999141693115,-1.7070000171661377 1.7070000171661377,-3.0899999141693115 0,-3.0899999141693115z"></path></g><g opacity="1" transform="matrix(0.5,0,0,0.5,-171.8470001220703,172.44200134277344)"><path fill="rgb(255,255,255)" fill-opacity="1" d=" M0,-3.0899999141693115 C-1.7070000171661377,-3.0899999141693115 -3.0899999141693115,-1.7070000171661377 -3.0899999141693115,0 C-3.0899999141693115,1.7070000171661377 -1.7070000171661377,3.0899999141693115 0,3.0899999141693115 C1.7070000171661377,3.0899999141693115 3.0899999141693115,1.7070000171661377 3.0899999141693115,0 C3.0899999141693115,-1.7070000171661377 1.7070000171661377,-3.0899999141693115 0,-3.0899999141693115z"></path></g><g opacity="1" transform="matrix(0.30000001192092896,0,0,0.30000001192092896,-189.4409942626953,-208.48800659179688)"><path fill="rgb(255,255,255)" fill-opacity="1" d=" M0,-3.0899999141693115 C-1.7070000171661377,-3.0899999141693115 -3.0899999141693115,-1.7070000171661377 -3.0899999141693115,0 C-3.0899999141693115,1.7070000171661377 -1.7070000171661377,3.0899999141693115 0,3.0899999141693115 C1.7070000171661377,3.0899999141693115 3.0899999141693115,1.7070000171661377 3.0899999141693115,0 C3.0899999141693115,-1.7070000171661377 1.7070000171661377,-3.0899999141693115 0,-3.0899999141693115z"></path></g><g opacity="1" transform="matrix(0.800000011920929,0,0,0.800000011920929,178.21499633789062,-480.3429870605469)"><path fill="rgb(255,255,255)" fill-opacity="1" d=" M0,-3.0899999141693115 C-1.7070000171661377,-3.0899999141693115 -3.0899999141693115,-1.7070000171661377 -3.0899999141693115,0 C-3.0899999141693115,1.7070000171661377 -1.7070000171661377,3.0899999141693115 0,3.0899999141693115 C1.7070000171661377,3.0899999141693115 3.0899999141693115,1.7070000171661377 3.0899999141693115,0 C3.0899999141693115,-1.7070000171661377 1.7070000171661377,-3.0899999141693115 0,-3.0899999141693115z"></path></g></g><g style="display: block;" transform="matrix(-0.6427876353263855,-0.7660444378852844,0.7660444378852844,-0.6427876353263855,1225.7608642578125,-448.6054382324219)" opacity="1"><g opacity="1" transform="matrix(1,0,0,1,-413.5979919433594,-55.09199905395508)"><path fill="url(#__lottie_element_215)" mask="url(#__lottie_element_217)" fill-opacity="1" d="M0 0 M565.9940185546875,-3.4079999923706055 C565.9940185546875,-3.4079999923706055 -145.99400329589844,-3.4079999923706055 -145.99400329589844,-3.4079999923706055 C-147.87600708007812,-3.4079999923706055 -149.40199279785156,-1.8819999694824219 -149.40199279785156,0 C-149.40199279785156,1.8819999694824219 -147.87600708007812,3.4079999923706055 -145.99400329589844,3.4079999923706055 C-145.99400329589844,3.4079999923706055 565.9940185546875,3.4079999923706055 565.9940185546875,3.4079999923706055 C567.8759765625,3.4079999923706055 569.4019775390625,1.8819999694824219 569.4019775390625,0 C569.4019775390625,-1.8819999694824219 567.8759765625,-3.4079999923706055 565.9940185546875,-3.4079999923706055z"></path></g></g><g style="display: block;" transform="matrix(-0.6427876353263855,-0.7660444378852844,0.7660444378852844,-0.6427876353263855,-15.439132690429688,477.46124267578125)" opacity="1"><g opacity="1" transform="matrix(1,0,0,1,-413.5979919433594,-55.09199905395508)"><path fill="url(#__lottie_element_208)" mask="url(#__lottie_element_210)" fill-opacity="1" d="M0 0 M565.9940185546875,-3.4079999923706055 C565.9940185546875,-3.4079999923706055 -145.99400329589844,-3.4079999923706055 -145.99400329589844,-3.4079999923706055 C-147.87600708007812,-3.4079999923706055 -149.40199279785156,-1.8819999694824219 -149.40199279785156,0 C-149.40199279785156,1.8819999694824219 -147.87600708007812,3.4079999923706055 -145.99400329589844,3.4079999923706055 C-145.99400329589844,3.4079999923706055 565.9940185546875,3.4079999923706055 565.9940185546875,3.4079999923706055 C567.8759765625,3.4079999923706055 569.4019775390625,1.8819999694824219 569.4019775390625,0 C569.4019775390625,-1.8819999694824219 567.8759765625,-3.4079999923706055 565.9940185546875,-3.4079999923706055z"></path></g></g><g style="display: block;" transform="matrix(-0.6427876353263855,-0.7660444378852844,0.7660444378852844,-0.6427876353263855,564.8302001953125,-29.718170166015625)" opacity="1"><g opacity="1" transform="matrix(1,0,0,1,-413.5979919433594,-55.09199905395508)"><path fill="url(#__lottie_element_202)" mask="url(#__lottie_element_204)" fill-opacity="1" d="M0 0 M145.99400329589844,-3.4079999923706055 C145.99400329589844,-3.4079999923706055 -545.9940185546875,-3.4079999923706055 -545.9940185546875,-3.4079999923706055 C-547.8759765625,-3.4079999923706055 -549.4019775390625,-1.8819999694824219 -549.4019775390625,0 C-549.4019775390625,1.8819999694824219 -547.8759765625,3.4079999923706055 -545.9940185546875,3.4079999923706055 C-545.9940185546875,3.4079999923706055 145.99400329589844,3.4079999923706055 145.99400329589844,3.4079999923706055 C147.87600708007812,3.4079999923706055 149.40199279785156,1.8819999694824219 149.40199279785156,0 C149.40199279785156,-1.8819999694824219 147.87600708007812,-3.4079999923706055 145.99400329589844,-3.4079999923706055z"></path></g></g><g style="display: block;" transform="matrix(-0.6427876353263855,-0.7660444378852844,0.7660444378852844,-0.6427876353263855,1090.36083984375,111.52792358398438)" opacity="1"><g opacity="1" transform="matrix(1,0,0,1,-413.5979919433594,-55.09199905395508)"><path fill="url(#__lottie_element_196)" mask="url(#__lottie_element_198)" fill-opacity="1" d="M0 0 M145.99400329589844,-3.4079999923706055 C145.99400329589844,-3.4079999923706055 -465.9939880371094,-3.4079999923706055 -465.9939880371094,-3.4079999923706055 C-467.8760070800781,-3.4079999923706055 -469.4020080566406,-1.8819999694824219 -469.4020080566406,0 C-469.4020080566406,1.8819999694824219 -467.8760070800781,3.4079999923706055 -465.9939880371094,3.4079999923706055 C-465.9939880371094,3.4079999923706055 145.99400329589844,3.4079999923706055 145.99400329589844,3.4079999923706055 C147.87600708007812,3.4079999923706055 149.40199279785156,1.8819999694824219 149.40199279785156,0 C149.40199279785156,-1.8819999694824219 147.87600708007812,-3.4079999923706055 145.99400329589844,-3.4079999923706055z"></path></g></g><g style="display: block;" transform="matrix(-0.6427876353263855,-0.7660444378852844,0.7660444378852844,-0.6427876353263855,-32.039093017578125,-90.33877563476562)" opacity="1"><g opacity="1" transform="matrix(1,0,0,1,-413.5979919433594,-55.09199905395508)"><path fill="url(#__lottie_element_189)" mask="url(#__lottie_element_191)" fill-opacity="1" d="M0 0 M145.99400329589844,-3.4079999923706055 C145.99400329589844,-3.4079999923706055 -145.99400329589844,-3.4079999923706055 -145.99400329589844,-3.4079999923706055 C-147.87600708007812,-3.4079999923706055 -149.40199279785156,-1.8819999694824219 -149.40199279785156,0 C-149.40199279785156,1.8819999694824219 -147.87600708007812,3.4079999923706055 -145.99400329589844,3.4079999923706055 C-145.99400329589844,3.4079999923706055 145.99400329589844,3.4079999923706055 145.99400329589844,3.4079999923706055 C147.87600708007812,3.4079999923706055 149.40199279785156,1.8819999694824219 149.40199279785156,0 C149.40199279785156,-1.8819999694824219 147.87600708007812,-3.4079999923706055 145.99400329589844,-3.4079999923706055z"></path></g></g><g style="display: none;" transform="matrix(-0.6427876353263855,-0.7660444378852844,0.7660444378852844,-0.6427876353263855,1068.9664306640625,-97.42391967773438)" opacity="1"><g opacity="1" transform="matrix(1,0,0,1,-413.5979919433594,-55.09199905395508)"><path fill="url(#__lottie_element_183)" mask="url(#__lottie_element_185)" fill-opacity="1" d="M0 0 M145.99400329589844,-3.4079999923706055 C145.99400329589844,-3.4079999923706055 -145.99400329589844,-3.4079999923706055 -145.99400329589844,-3.4079999923706055 C-147.87600708007812,-3.4079999923706055 -149.40199279785156,-1.8819999694824219 -149.40199279785156,0 C-149.40199279785156,1.8819999694824219 -147.87600708007812,3.4079999923706055 -145.99400329589844,3.4079999923706055 C-145.99400329589844,3.4079999923706055 145.99400329589844,3.4079999923706055 145.99400329589844,3.4079999923706055 C147.87600708007812,3.4079999923706055 149.40199279785156,1.8819999694824219 149.40199279785156,0 C149.40199279785156,-1.8819999694824219 147.87600708007812,-3.4079999923706055 145.99400329589844,-3.4079999923706055z"></path></g></g><g style="display: none;" transform="matrix(-0.6427876353263855,-0.7660444378852844,0.7660444378852844,-0.6427876353263855,558.7735595703125,616.1069946289062)" opacity="1"><g opacity="1" transform="matrix(1,0,0,1,-413.5979919433594,-55.09199905395508)"><path fill="url(#__lottie_element_177)" mask="url(#__lottie_element_179)" fill-opacity="1" d="M0 0 M145.99400329589844,-3.4079999923706055 C145.99400329589844,-3.4079999923706055 -145.99400329589844,-3.4079999923706055 -145.99400329589844,-3.4079999923706055 C-147.87600708007812,-3.4079999923706055 -149.40199279785156,-1.8819999694824219 -149.40199279785156,0 C-149.40199279785156,1.8819999694824219 -147.87600708007812,3.4079999923706055 -145.99400329589844,3.4079999923706055 C-145.99400329589844,3.4079999923706055 145.99400329589844,3.4079999923706055 145.99400329589844,3.4079999923706055 C147.87600708007812,3.4079999923706055 149.40199279785156,1.8819999694824219 149.40199279785156,0 C149.40199279785156,-1.8819999694824219 147.87600708007812,-3.4079999923706055 145.99400329589844,-3.4079999923706055z"></path></g></g><g style="display: none;" transform="matrix(-0.6427876353263855,-0.7660444378852844,0.7660444378852844,-0.6427876353263855,1395.5631103515625,293.0938720703125)" opacity="1"><g opacity="1" transform="matrix(1,0,0,1,-413.5979919433594,-55.09199905395508)"><path fill="url(#__lottie_element_171)" mask="url(#__lottie_element_173)" fill-opacity="1" d="M0 0 M145.99400329589844,-3.4079999923706055 C145.99400329589844,-3.4079999923706055 -145.99400329589844,-3.4079999923706055 -145.99400329589844,-3.4079999923706055 C-147.87600708007812,-3.4079999923706055 -149.40199279785156,-1.8819999694824219 -149.40199279785156,0 C-149.40199279785156,1.8819999694824219 -147.87600708007812,3.4079999923706055 -145.99400329589844,3.4079999923706055 C-145.99400329589844,3.4079999923706055 145.99400329589844,3.4079999923706055 145.99400329589844,3.4079999923706055 C147.87600708007812,3.4079999923706055 149.40199279785156,1.8819999694824219 149.40199279785156,0 C149.40199279785156,-1.8819999694824219 147.87600708007812,-3.4079999923706055 145.99400329589844,-3.4079999923706055z"></path></g></g></g></svg>