<?xml version="1.0" encoding="UTF-8"?>
<svg width="187px" height="32px" viewBox="0 0 187 32" version="1.1" xmlns="http://www.w3.org/2000/svg" xmlns:xlink="http://www.w3.org/1999/xlink">
    <!-- Generator: Sketch 60 (88103) - https://sketch.com -->
    <title>Mixmax</title>
    <desc>Created with Sketch.</desc>
    <g id="Screens" stroke="none" stroke-width="1" fill="none" fill-rule="evenodd" fill-opacity="0.4">
        <g id="Screens-/-Homepage" transform="translate(-992.000000, -1058.000000)" fill="#1B2448">
            <g id="Logos" transform="translate(505.000000, 966.000000)">
                <path d="M549.736338,123.671593 L544.920354,123.671593 L544.920354,98.1288086 L550.466032,98.1288086 L558.054856,110.93669 L558.200794,110.93669 L565.789618,98.1288086 L571.262327,98.1288086 L571.262327,123.671593 L566.446343,123.671593 L566.446343,106.047072 L566.300404,106.047072 L558.273764,119.402299 L557.908917,119.402299 L549.882277,105.937603 L549.736338,105.937603 L549.736338,123.671593 Z M579.113176,102.325123 C577.106516,102.325123 576.084944,101.230432 576.084944,99.3329684 C576.084944,97.5449735 577.106516,96.4137931 579.113176,96.4137931 C581.010382,96.4137931 582.141409,97.5449735 582.141409,99.3329684 C582.141409,101.230432 581.010382,102.325123 579.113176,102.325123 Z M581.521168,123.671593 L576.632215,123.671593 L576.632215,104.696953 L581.521168,104.696953 L581.521168,123.671593 Z M589.007171,123.671593 L583.680401,123.671593 L583.680401,123.306696 L589.700381,114.147783 L583.899309,105.06185 L583.899309,104.696953 L589.15311,104.696953 L592.984006,111.082649 L593.129945,111.082649 L596.960841,104.696953 L602.214642,104.696953 L602.214642,105.06185 L596.377086,114.111294 L602.397066,123.306696 L602.397066,123.671593 L597.070296,123.671593 L593.129945,117.139938 L592.984006,117.139938 L589.007171,123.671593 Z M626.702527,104.368546 C630.898271,104.368546 633.561656,107.032293 633.561656,111.228608 L633.561656,123.671593 L628.672702,123.671593 L628.672702,112.615216 C628.672702,110.097427 627.578161,108.820288 625.389077,108.820288 C623.090539,108.820288 621.777089,110.498814 621.777089,113.162562 L621.777089,123.671593 L616.92462,123.671593 L616.92462,112.615216 C616.92462,110.097427 615.830079,108.820288 613.60451,108.820288 C611.305972,108.820288 609.773614,110.498814 609.773614,113.162562 L609.773614,123.671593 L604.884661,123.671593 L604.884661,104.696953 L609.262828,104.696953 L609.627675,106.849845 L609.773614,106.849845 C611.014095,105.207809 612.801846,104.368546 615.100384,104.368546 C617.763769,104.368546 619.660975,105.317278 620.792001,107.178252 L620.901456,107.178252 C622.178421,105.317278 624.112112,104.368546 626.702527,104.368546 Z M643.017834,124 C638.895059,124 636.377613,121.555191 636.377613,118.08867 C636.377613,114.47619 638.931544,112.21383 644.039406,112.21383 C645.681219,112.21383 647.104123,112.396278 648.271634,112.797665 L648.271634,111.155629 C648.271634,109.513592 647.213577,108.382412 644.988009,108.382412 C642.981349,108.382412 641.813838,109.404123 641.813838,110.827221 L637.216762,110.827221 C637.216762,108.966247 637.909972,107.39719 639.259907,106.19303 C640.646326,104.988871 642.580017,104.368546 645.097463,104.368546 C650.09587,104.368546 653.160588,107.141762 653.160588,111.119139 L653.160588,123.671593 L648.818905,123.671593 L648.454058,121.701149 L648.308119,121.701149 C647.140608,123.233716 645.389341,124 643.017834,124 Z M644.185345,120.132093 C646.666306,120.132093 648.271634,118.563036 648.271634,116.629082 L648.271634,116.227696 C647.213577,115.826309 645.936612,115.607371 644.513707,115.607371 C642.434078,115.607371 641.230082,116.519613 641.230082,117.869732 C641.230082,119.21985 642.288139,120.132093 644.185345,120.132093 Z M495.274336,92 L495.274,107.699 L502.997,92.483 L502.99705,92 L511.271386,92 L511.271,107.699 L518.994,92.483 L518.9941,92 L527.268437,92 L527.268437,124 L518.9941,124 L518.994,108.3 L511.271,123.515 L511.271386,124 L502.99705,124 L502.997,108.3 L495.274,123.515 L495.274336,124 L487,124 L487,92 L495.274336,92 Z M660.756044,104.696953 L664.586941,111.082649 L664.732879,111.082649 L668.563776,104.696953 L673.817576,104.696953 L673.817576,105.06185 L667.98002,114.111294 L674,123.306696 L674,123.671593 L668.67323,123.671593 L664.732879,117.139938 L664.586941,117.139938 L660.610105,123.671593 L655.283335,123.671593 L655.283335,123.306696 L661.303315,114.147783 L655.502244,105.06185 L655.502244,104.696953 L660.756044,104.696953 Z" id="Mixmax"></path>
            </g>
        </g>
    </g>
</svg>