<?xml version="1.0" encoding="UTF-8"?>
<svg width="12px" height="12px" viewBox="0 0 12 12" version="1.1" xmlns="http://www.w3.org/2000/svg" xmlns:xlink="http://www.w3.org/1999/xlink">
    <!-- Generator: Sketch 61 (89581) - https://sketch.com -->
    <title>CLOSE</title>
    <desc>Created with Sketch.</desc>
    <g id="Screens" stroke="none" stroke-width="1" fill="none" fill-rule="evenodd">
        <g id="Screens-/-Professional-support---contact-sales" transform="translate(-1224.000000, -186.000000)" fill="#1B2448">
            <g id="CLOSE" transform="translate(1218.000000, 180.000000)">
                <path d="M6.34314575,6.34314575 C6.73367004,5.95262146 7.36683502,5.95262146 7.75735931,6.34314575 L12,10.5857864 L16.2426407,6.34314575 C16.633165,5.95262146 17.26633,5.95262146 17.6568542,6.34314575 C18.0473785,6.73367004 18.0473785,7.36683502 17.6568542,7.75735931 L13.4135065,12.0007071 L17.6568542,16.2426407 C18.0473785,16.633165 18.0473785,17.26633 17.6568542,17.6568542 C17.26633,18.0473785 16.633165,18.0473785 16.2426407,17.6568542 L11.9992929,13.4149207 L7.75735931,17.6568542 C7.36683502,18.0473785 6.73367004,18.0473785 6.34314575,17.6568542 C5.95262146,17.26633 5.95262146,16.633165 6.34314575,16.2426407 L10.5857864,12 L6.34314575,7.75735931 C5.95262146,7.36683502 5.95262146,6.73367004 6.34314575,6.34314575 Z" id="Path"></path>
            </g>
        </g>
    </g>
</svg>