<?xml version="1.0" encoding="UTF-8"?>
<svg width="200px" height="54px" viewBox="0 0 200 54" version="1.1" xmlns="http://www.w3.org/2000/svg" xmlns:xlink="http://www.w3.org/1999/xlink">
    <!-- Generator: Sketch 60 (88103) - https://sketch.com -->
    <title>MongoDB</title>
    <desc>Created with Sketch.</desc>
    <g id="Screens" stroke="none" stroke-width="1" fill="none" fill-rule="evenodd" fill-opacity="0.4">
        <g id="Screens-/-Homepage" transform="translate(-862.000000, -2388.000000)" fill="#1B2448" fill-rule="nonzero">
            <g id="Integrations" transform="translate(432.000000, 2291.000000)">
                <g id="Stacked-Group" transform="translate(0.000000, 97.000000)">
                    <path d="M442.164454,-2.16715534e-13 C442.189294,0.0578078597 442.210313,0.117480489 442.2256,0.149181573 C442.2256,0.149181573 443.041514,2.13143173 443.855517,3.24656399 C444.594999,4.82229436 451.481542,8.94902963 454.39552,21.4989295 C454.691195,23.1500784 454.846499,24.8222551 454.859846,26.498377 C454.952034,33.7177779 451.904496,40.6370515 446.47332,45.53954 L446.47332,45.53954 L446.408353,45.5973479 C445.83608,46.1161274 445.231082,46.5994268 444.596909,47.0444091 L444.596909,47.0444091 L444.510923,47.1003522 C443.991613,49.3777107 443.599953,51.6810135 443.337689,54 L443.337689,54 L442.227511,54 C441.914138,50.7235997 441.472742,47.6187582 441.463188,47.5534913 L441.463188,47.5534913 L441.302681,47.4434699 C439.873398,46.4327647 429.379254,38.5074936 430.028928,25.2135507 C430.726372,10.953657 439.286781,3.94585261 440.960646,2.66475585 C442.03643,1.54216451 442.080379,1.10953795 442.164454,-2.16715534e-13 Z M547.070011,26.46 C548.744535,26.4986563 549.690015,26.8392003 550.996221,27.3085988 C551.739145,27.5728601 552.527107,27.6977959 553.318152,27.6767545 C554.704097,27.6767545 555.309735,27.2496939 555.829939,26.7563653 C555.91458,26.9793274 555.959519,27.214616 555.962838,27.4521795 C555.994895,28.0207138 555.834202,28.5838026 555.505286,29.0554975 C555.220503,29.4365386 554.556009,29.7144961 553.944675,29.7144961 C553.880124,29.7144961 553.821269,29.7144961 553.75482,29.7052922 C553.434443,29.6809899 553.116834,29.6298713 552.805543,29.5525076 L552.649861,29.6040494 C552.600499,29.6758398 552.632774,29.7531525 552.672644,29.8525545 C552.681495,29.8717107 552.689104,29.8913839 552.695426,29.9114594 C552.806419,30.4033892 552.881911,30.9022218 552.921354,31.4043307 C552.921354,34.2704226 551.757541,35.5184703 550.496901,36.442541 C549.370122,37.2621869 548.047833,37.7882654 546.656099,37.9735351 L546.306792,38.0127249 C546.274517,38.0127249 546.116937,38.0274512 545.822661,38.0532221 C545.632805,38.0697891 545.384095,38.0900376 545.348022,38.0900376 L545.31195,38.0900376 C545.038558,38.1655096 544.322803,38.4950089 544.322803,39.1061473 C544.322803,39.6160429 544.647456,40.2492706 546.19098,40.3615581 L547.18962,40.4296669 C549.228667,40.5677253 551.772729,40.7389177 552.970717,41.1328443 C554.599416,41.688424 555.677037,43.1940738 555.643881,44.8677835 C555.643881,47.4448732 553.760515,49.8562929 550.60322,51.3325971 C549.11525,52.0231108 547.485565,52.3786471 545.835951,52.3726369 L545.854936,52.38 C543.664005,52.38 542.086306,51.9308501 540.738333,50.9257851 C539.428331,49.9446502 538.839779,48.4885946 538.839779,47.4835296 C538.853498,46.8351983 539.108362,46.2135046 539.557432,45.7329494 C539.937143,45.3114111 540.823768,44.5253988 542.864714,43.1558597 C542.930837,43.1306004 542.97393,43.0682943 542.972931,42.9993935 C542.974272,42.9227663 542.920644,42.8554772 542.843829,42.837405 C541.159812,42.2133812 540.652898,41.1807045 540.501014,40.628471 C540.501014,40.6082224 540.491521,40.5769292 540.483927,40.5419544 C540.434564,40.3229018 540.388999,40.1185754 540.694666,39.9050451 C540.930087,39.7430566 541.307899,39.5258448 541.710393,39.2957475 C542.278927,38.9906959 542.823967,38.6461857 543.341251,38.2649116 C543.400104,38.2073674 543.426321,38.125614 543.411497,38.045859 C543.398005,37.9671998 543.347461,37.8991363 543.274801,37.8617811 C540.783898,37.0518386 539.530853,35.2570798 539.530853,32.5235239 C539.515226,30.7892166 540.373439,29.1566302 541.830002,28.1498345 C542.832438,27.38223 545.346124,26.46 546.975083,26.46 L547.070011,26.46 Z M545.602429,43.3454598 C545.07208,43.3408325 544.549294,43.467552 544.083585,43.7136155 C542.595119,44.6340047 541.905944,45.5635978 541.905944,46.6275676 C541.905944,47.6307918 542.308437,48.4278489 543.170381,49.1365485 C544.216484,49.9943513 545.625211,50.4122079 547.4782,50.4122079 C551.125322,50.4122079 552.759977,48.5106839 552.759977,46.6275676 C552.759977,45.3150927 552.080295,44.4370414 550.684858,43.9400312 C549.608378,43.5571494 547.810447,43.3473006 545.610023,43.3473006 L545.602429,43.3454598 Z M442.735785,21.2882105 C442.141388,21.2882105 442.098931,37.3670918 442.095898,39.6640749 L442.095665,39.9359072 C442.095665,41.386698 442.989922,45.2430416 443.865071,45.3437392 C443.865071,45.3437392 443.226862,21.2882105 442.735785,21.2882105 Z M613.367543,17.9376543 C615.976967,17.9376543 618.096528,17.8592181 620.623991,17.8592181 C623.763305,17.8592181 628.084389,18.9666627 628.084389,23.5458432 C628.084389,25.7980829 626.452785,27.6133208 624.333223,28.4835892 C624.211234,28.5228073 624.211234,28.6012435 624.333223,28.6404616 C627.350548,29.3874731 630,31.2083137 630,34.6837847 C630,38.078952 627.840411,40.2135373 624.701097,41.554423 C622.78358,42.3854733 620.42004,42.66 618.014567,42.66 C616.180918,42.66 611.265136,42.4639095 608.533723,42.5031276 C608.247811,42.3854733 608.794856,41.1211563 609.038835,40.9231983 C609.664706,40.903458 610.285699,40.808116 610.887733,40.6393339 C611.865552,40.4040253 611.981823,40.0940155 612.103812,38.6728261 C612.16991,37.6848431 612.182703,34.6466595 612.185179,31.8679246 L612.185773,29.9439967 C612.185773,25.678561 612.225801,22.7969641 612.185773,21.3739072 C612.14384,20.2683302 611.737844,19.9116322 610.96207,19.7155417 C610.352124,19.5960198 609.332371,19.4783655 608.518475,19.3607112 C608.312618,19.1627532 608.941625,17.9768724 609.143669,17.82 C609.511543,17.82 610.596102,17.9376543 613.367543,17.9376543 Z M585.52789,17.9378404 C587.792466,17.9378404 589.360684,17.82 593.599214,17.82 C597.150824,17.82 600.138176,18.7702048 602.280087,20.5883133 C604.86359,22.8029639 606.243094,25.889259 606.243094,29.6470572 C606.243094,34.9854127 603.789804,38.0642259 601.31953,39.811256 C598.866239,41.6312349 595.667527,42.66 591.108182,42.66 C588.686973,42.66 584.52959,42.5814398 581.057241,42.5421596 L581.010062,42.5421596 C580.849655,42.2241777 581.308231,40.9915301 581.591303,40.9597319 C582.534876,40.8531145 582.78398,40.8175753 583.21991,40.6398795 C583.952123,40.3406024 584.125741,39.970247 584.206888,38.6646506 C584.319038,36.3876061 584.292878,33.7009069 584.288569,30.6689504 L584.288583,29.4220064 C584.29308,26.944583 584.321869,22.8573414 584.246518,21.4973675 C584.125741,20.2722018 583.603001,19.9560904 582.548086,19.7185392 C581.799888,19.5611513 581.044036,19.4419073 580.283511,19.3612771 C580.202364,19.1237259 580.823235,18.0519398 581.025159,17.82 C581.708306,17.82 584.316342,17.9378404 585.52789,17.9378404 Z M469.274176,26.46 C469.399615,26.6166566 469.458024,26.814077 469.437294,27.011333 C469.437294,27.1326262 469.418327,27.2612706 469.40505,27.3935905 C469.370909,27.7850369 469.332975,28.227941 469.332975,28.6690074 C469.348129,28.778298 469.425867,28.8698398 469.533634,28.905295 C469.6414,28.9407501 469.760594,28.913999 469.841296,28.836245 C472.145814,27.0866818 474.203757,26.4618378 475.265922,26.4618378 C477.007113,26.4618378 478.363269,27.2686217 479.412157,28.9281339 C479.461952,29.0095439 479.551601,29.0602717 479.649247,29.0622915 C479.736994,29.0618481 479.818763,29.0191341 479.86737,28.9483494 C481.986009,27.3917527 484.08568,26.4618378 485.487358,26.4618378 C488.808519,26.4618378 490.79818,28.8711628 490.79818,32.9050822 C490.79818,34.0647192 490.7868,35.5331027 490.77542,36.9059217 C490.765936,38.1078276 490.756453,39.2362223 490.756453,40.0172774 C490.756453,40.201055 491.0182,40.7303347 491.410822,40.8350879 C491.896383,41.06481 492.59817,41.1824277 493.483939,41.3294498 L493.51808,41.3294498 C493.586362,41.5610096 493.446005,42.4596824 493.309441,42.64346 C493.089421,42.64346 492.785945,42.62692 492.406601,42.6085423 C491.718091,42.5754623 490.771626,42.5276801 489.671527,42.5276801 C487.465639,42.5276801 486.312432,42.569949 485.210437,42.6397845 C485.128878,42.3733069 485.09853,41.5113897 485.200953,41.3331254 C485.654845,41.2555638 486.103826,41.153096 486.545729,41.0262167 C487.247516,40.8020079 487.450466,40.4932615 487.49409,39.5890754 C487.511161,38.9458537 487.638241,33.2891775 487.412531,31.9457629 C487.203892,30.5545661 486.12276,28.9244583 483.753754,28.9244583 C482.875572,28.9244583 481.456823,29.2791492 480.102564,30.2733863 C480.020055,30.3659788 479.973734,30.4837104 479.97169,30.6060238 L479.97169,30.6335905 C480.131014,31.3576744 480.131014,32.2030516 480.131014,33.4839818 C480.131014,34.2190925 480.131014,34.9854453 480.121531,35.7536358 C480.112047,37.3139081 480.10446,38.7859671 480.131014,39.8978219 C480.131014,40.6568236 480.603298,40.8387635 480.984539,40.9839478 C481.191282,41.0280545 481.363884,41.0666478 481.519415,41.1034033 C481.838064,41.1787521 482.168094,41.2559387 482.657448,41.3312876 C482.730167,41.6541352 482.723671,41.989013 482.638481,42.3089847 C482.620559,42.4302173 482.57166,42.5451905 482.496227,42.64346 C481.270945,42.6030289 480.011521,42.5662734 478.194461,42.5662734 C477.644412,42.5662734 476.745365,42.5901645 475.950639,42.61038 C475.309546,42.62692 474.698802,42.64346 474.353598,42.6452978 C474.266734,42.4347585 474.229161,42.2081681 474.243589,41.9818605 C474.224211,41.7637664 474.268232,41.5447714 474.370669,41.3496653 L474.858127,41.2632898 C475.282992,41.1897788 475.650956,41.1272944 475.99616,41.0427567 C476.597421,40.858979 476.823131,40.5410437 476.868652,39.8004197 C476.986249,38.071072 477.077292,33.0888599 476.825028,31.8410096 C476.394472,29.839671 475.218504,28.8233806 473.327472,28.8233806 C472.219786,28.8233806 470.821902,29.3397958 469.680075,30.1704708 C469.456749,30.379242 469.334239,30.6693297 469.342458,30.9699036 L469.342135,33.693063 C469.340092,36.0578174 469.330831,38.7617564 469.38798,39.9933863 C469.425914,40.406886 469.577652,40.8994101 470.381862,41.08135 C470.558257,41.1309699 470.861733,41.1787521 471.214523,41.2357232 C471.419369,41.2688032 471.641286,41.3037209 471.868892,41.344152 C471.94179,41.784841 471.904719,42.2360368 471.760779,42.66 C471.407989,42.66 470.973639,42.6379467 470.476698,42.6158934 C469.718009,42.5846512 468.769648,42.5423823 467.694207,42.5423823 C466.425299,42.5423823 465.543324,42.5846512 464.833949,42.6158934 C464.357872,42.6397845 463.946283,42.6581622 463.534695,42.66 L463.529005,42.6508111 C463.423558,42.4019319 463.380652,42.1323387 463.403821,41.8642428 C463.395984,41.6819056 463.439242,41.5009142 463.529005,41.3404765 C464.053686,41.2670076 464.573604,41.1645376 465.086213,41.0335678 C465.803175,40.8608168 466.072509,40.4822348 466.116134,39.5945888 C466.23373,37.4995235 466.239421,33.5685196 466.197693,30.8045037 L466.197693,30.7236415 C466.197693,30.4259217 466.197693,30.0216109 465.818348,29.7349178 C465.150944,29.3295939 464.42646,29.0200839 463.667465,28.8160295 C463.326055,28.7186273 463.13828,28.5458763 463.14966,28.3437209 C463.16104,28.1415655 463.37537,27.9044923 463.811616,27.8309813 C464.985687,27.7133636 468.065964,27.0021441 469.274176,26.46 Z M505.436361,25.92 C510.139641,25.92 513.425414,29.20104 513.425414,33.89754 C513.425414,37.0893 512.111488,39.6096 509.629415,41.18502 C508.43825,41.89368 506.368577,42.65814 504.657597,42.65814 L504.657597,42.66 C498.498449,42.65814 496.298343,38.2797 496.298343,34.17282 C496.298343,31.30656 497.506771,29.06526 499.889101,27.51216 C501.557651,26.5090153 503.473551,25.9591186 505.436361,25.92 Z M567.867301,25.92 C572.57058,25.92 575.856354,29.2014046 575.856354,33.8965663 C575.856354,37.0924014 574.542428,39.6111212 572.060355,41.1848561 C570.86919,41.8954551 568.799517,42.66 567.088536,42.66 C560.923634,42.66 558.729282,38.2754928 558.729282,34.1737371 C558.729282,31.3052984 559.93771,29.0656095 562.321958,27.5123369 C563.989523,26.5084744 565.904984,25.9584524 567.867301,25.92 Z M528.512466,25.92 C530.319502,25.92 531.715586,26.7119718 532.700719,28.0581367 C533.524543,29.2507751 533.85292,30.9077374 533.85292,32.8080953 C533.85292,35.144693 533.85292,38.70763 533.935495,39.9358416 C533.969918,40.1475148 534.070514,40.3436701 534.223545,40.4975238 C535.001281,40.8532558 535.659956,40.9730813 536.564434,41.0910346 L536.552,41.089 L536.580965,41.1556085 C536.683327,41.480201 536.619772,42.2449078 536.438084,42.5721006 L536.380082,42.6562555 C535.803981,42.6562555 534.36757,42.5383022 532.109255,42.5383022 C530.30606,42.5383022 529.069364,42.6562555 528.001657,42.6562555 C527.836508,42.4184767 527.755854,41.3100906 528.001657,41.0723118 C528.781313,40.9936763 529.439988,40.8738508 529.685791,40.7558976 C530.219645,40.5986266 530.342546,40.2410223 530.342546,38.8143496 C530.342546,36.2025277 530.384794,33.1862946 530.219645,31.6884756 C530.13515,31.014457 529.84902,30.1045319 529.067443,29.4717034 C528.500944,28.9961458 527.723208,28.6404138 526.571007,28.6404138 C525.378478,28.6404138 524.024642,29.1140991 523.202738,29.8274354 C522.955015,30.029641 522.751459,30.3891175 522.751459,31.1380271 C522.751459,33.8303568 522.751459,37.7902159 522.834033,39.651256 C522.87436,40.3627201 523.037589,40.6810066 523.694344,40.8382776 C524.24636,40.9712225 524.810458,41.0508661 525.378478,41.0760564 C525.543627,41.3138351 525.462973,42.3829035 525.21525,42.66 C524.604583,42.66 523.371727,42.5420468 520.990511,42.5420468 L520.764368,42.5426963 C519.092813,42.5520806 517.158857,42.66 516.765772,42.66 C516.560296,42.4222212 516.560296,41.2726451 516.765772,41.0760564 C517.278009,41.0136787 517.785905,40.9211441 518.286678,40.7989598 L518.286678,40.7989598 L518.225228,40.8195549 C518.883903,40.6604116 519.129706,40.3439973 519.171953,39.47339 C519.292934,37.2547456 519.292934,33.1769332 519.252607,30.5239213 C519.252607,30.207507 519.294855,29.8105849 518.92615,29.5334884 C518.267502,29.1329579 517.552732,28.8277181 516.804179,28.6273079 L516.804179,28.6273079 L516.790737,28.6273079 C515.859374,28.3445946 516.080213,27.5245386 516.953965,27.3597785 C518.150334,27.2455698 521.3861,26.4966603 522.538302,25.9349782 C522.742815,26.1238361 522.842682,26.3964665 522.807149,26.6689095 C522.770662,27.1725512 522.711132,27.964523 522.703451,28.3539559 C522.695769,28.7433889 522.966537,28.4925042 523.008784,28.4531864 C524.775493,26.9871961 526.910906,25.92 528.512466,25.92 Z M566.432532,27.5923258 C565.737704,27.5774644 565.054009,27.7632983 564.468357,28.1262051 C563.045097,28.9670186 562.318122,30.6430648 562.318122,33.1078386 C562.318122,37.7230114 564.700452,40.9467496 568.112823,40.9467496 C569.03093,40.9771725 569.927018,40.6702239 570.62175,40.0873341 C571.669054,39.2595422 572.225315,37.5648939 572.225315,35.1931303 C572.225315,30.6467852 569.896693,27.5923258 566.432532,27.5923258 Z M504.002,27.593 C503.314514,27.5814681 502.635184,27.7671834 502.052762,28.12782 C500.629503,28.96854 499.902528,30.6444 499.902528,33.1089 C499.902528,37.72356 502.286776,40.94694 505.697228,40.94694 C506.609844,40.9741007 507.499729,40.6680988 508.19081,40.08948 C509.238115,39.25992 509.794375,37.56546 509.794375,35.19396 C509.794375,30.74484 507.56379,27.7246378 504.219357,27.5981327 L504.002,27.593 Z M590.611862,19.5988283 C589.845681,19.5988283 589.077612,19.6381084 588.634133,19.8363795 C588.454541,19.9789856 588.327229,20.1761551 588.271801,20.3975241 C588.203138,21.0005387 588.192574,24.9730328 588.190949,28.1222152 L588.191,31.4102804 C588.192787,34.3975963 588.203813,37.6926572 588.271801,38.1502681 C588.311431,38.6253705 588.554873,39.4596054 589.077612,39.811256 C589.926828,40.4846295 591.621485,40.7614608 593.116105,40.7614608 C595.052317,40.7614608 596.948899,40.4060693 598.803964,38.7450813 C600.702433,37.0429428 601.993241,34.43175 601.993241,30.2792801 C601.993241,26.2839307 600.458991,23.0405151 597.311231,21.1419759 C595.535426,20.0346506 593.236882,19.5988283 590.611862,19.5988283 Z M616.293376,30.1419547 C616.171387,30.1811728 616.049398,30.2596091 616.049398,30.3399128 C616.049398,32.8274611 616.007464,36.8165025 616.129453,38.3964318 C616.211415,39.0668747 616.701278,40.0155793 617.313129,40.2919735 C617.965009,40.646804 619.432691,40.7252402 620.452444,40.7252402 C623.263912,40.7252402 625.751347,39.1863965 625.751347,35.5521855 C625.751347,32.0767145 623.141923,30.1027366 618.371004,30.1027366 C618.168959,30.1027366 616.655532,30.061651 616.293376,30.1419547 Z M545.848,27.969 C543.967773,27.9694383 542.752699,29.4089269 542.752699,31.6381095 C542.752699,33.8672921 543.798802,36.5143314 546.739662,36.5143314 C547.246576,36.5143314 548.163578,36.2952787 548.617332,35.811154 C549.300812,35.2018564 549.746972,33.9409232 549.746972,32.6118813 C549.746972,29.7907802 548.373391,28.0725601 546.060208,27.9739287 L545.848,27.969 Z M617.965009,19.6763236 C617.474541,19.6702499 616.984211,19.6964543 616.497327,19.7547598 L616.506857,19.7547598 C616.344841,19.7939779 616.138984,20.189894 616.138984,20.387852 C616.098956,21.8090414 616.058929,25.5216886 616.058929,28.0876731 C616.080472,28.1876386 616.160652,28.2654625 616.262879,28.2856312 C616.792769,28.3248493 618.096528,28.3659349 619.196337,28.3659349 C620.74598,28.3659349 621.643744,28.1661093 622.1317,27.9289332 C623.437365,27.2977084 624.037781,25.9157372 624.037781,24.4161116 C624.037781,20.9798587 621.59228,19.6763236 617.965009,19.6763236 Z" id="MongoDB"></path>
                </g>
            </g>
        </g>
    </g>
</svg>