<?xml version="1.0" encoding="UTF-8"?>
<svg width="96px" height="37px" viewBox="0 0 96 37" version="1.1" xmlns="http://www.w3.org/2000/svg" xmlns:xlink="http://www.w3.org/1999/xlink">
    <!-- Generator: Sketch 60 (88103) - https://sketch.com -->
    <title>npm</title>
    <desc>Created with Sketch.</desc>
    <g id="Screens" stroke="none" stroke-width="1" fill="none" fill-rule="evenodd" fill-opacity="0.4">
        <g id="Screens-/-Homepage" transform="translate(-1393.000000, -2396.000000)" fill="#1B2448" fill-rule="nonzero">
            <g id="Integrations" transform="translate(432.000000, 2291.000000)">
                <g id="Stacked-Group" transform="translate(0.000000, 97.000000)">
                    <path d="M961,8 L1057,8 L1057,39.7142857 L1009,39.7142857 L1009,45 L987.666667,45 L987.666667,39.7142857 L961,39.7142857 L961,8 Z M966.333333,34.4285714 L977,34.4285714 L977,18.5714286 L982.333333,18.5714286 L982.333333,34.4285714 L987.666667,34.4285714 L987.666667,13.2857143 L966.333333,13.2857143 L966.333333,34.4285714 Z M993,13.2857143 L993,39.7142857 L1003.66667,39.7142857 L1003.66667,34.4285714 L1014.33333,34.4285714 L1014.33333,13.2857143 L993,13.2857143 Z M1003.66667,18.5714286 L1009,18.5714286 L1009,29.1428571 L1003.66667,29.1428571 L1003.66667,18.5714286 Z M1019.66667,13.2857143 L1019.66667,34.4285714 L1030.33333,34.4285714 L1030.33333,18.5714286 L1035.66667,18.5714286 L1035.66667,34.4285714 L1041,34.4285714 L1041,18.5714286 L1046.33333,18.5714286 L1046.33333,34.4285714 L1051.66667,34.4285714 L1051.66667,13.2857143 L1019.66667,13.2857143 Z" id="npm"></path>
                </g>
            </g>
        </g>
    </g>
</svg>