<?xml version="1.0" encoding="UTF-8"?>
<svg width="204px" height="173px" viewBox="0 0 204 173" version="1.1" xmlns="http://www.w3.org/2000/svg" xmlns:xlink="http://www.w3.org/1999/xlink">
    <!-- Generator: Sketch 61 (89581) - https://sketch.com -->
    <title>Group</title>
    <desc>Created with Sketch.</desc>
    <defs>
        <linearGradient x1="46.964275%" y1="21.2015625%" x2="63.0250312%" y2="74.00625%" id="linearGradient-1">
            <stop stop-color="#595DFF" stop-opacity="0.0803649476" offset="0%"></stop>
            <stop stop-color="#595DFF" stop-opacity="0" offset="100%"></stop>
        </linearGradient>
        <path d="M3.00006797,123.267753 L75.0001359,81.6947267 C76.2376636,80.980175 77,79.6597099 77,78.2307036 L77,3.44635936 C77,2.34178986 76.1045695,1.44635936 75,1.44635936 C74.6519461,1.44635936 74.3099175,1.53718999 74.0077221,1.70987307 L2.01544425,42.8483176 C0.769144258,43.560489 -1.75789156e-16,44.8858628 0,46.3212901 L0,121.535741 C7.98370909e-15,122.640311 0.8954305,123.535741 2,123.535741 C2.35109994,123.535741 2.69601339,123.443315 3.00006797,123.267753 Z" id="path-2"></path>
        <path d="M33.000068,133.267753 L105.000136,91.6947267 C106.237664,90.980175 107,89.6597099 107,88.2307036 L107,13.4463594 C107,12.3417899 106.104569,11.4463594 105,11.4463594 C104.651946,11.4463594 104.309918,11.53719 104.007722,11.7098731 L32.0154442,52.8483176 C30.7691443,53.560489 30,54.8858628 30,56.3212901 L30,131.535741 C30,132.640311 30.8954305,133.535741 32,133.535741 C32.3510999,133.535741 32.6960134,133.443315 33.000068,133.267753 Z" id="path-3"></path>
        <linearGradient x1="60.9135707%" y1="75.1943674%" x2="47.2829531%" y2="17.2930318%" id="linearGradient-4">
            <stop stop-color="#595DFF" stop-opacity="0" offset="0%"></stop>
            <stop stop-color="#595DFF" stop-opacity="0.2" offset="100%"></stop>
        </linearGradient>
        <path d="M3.00006797,153.267753 L75.0001359,111.694727 C76.2376636,110.980175 77,109.65971 77,108.230704 L77,3.44635936 C77,2.34178986 76.1045695,1.44635936 75,1.44635936 C74.6519461,1.44635936 74.3099175,1.53718999 74.0077221,1.70987307 L2.01544425,42.8483176 C0.769144258,43.560489 -3.72850283e-15,44.8858628 0,46.3212901 L0,151.535741 C1.3527075e-16,152.640311 0.8954305,153.535741 2,153.535741 C2.35109994,153.535741 2.69601339,153.443315 3.00006797,153.267753 Z" id="path-5"></path>
        <linearGradient x1="50%" y1="0%" x2="50%" y2="100%" id="linearGradient-6">
            <stop stop-color="#FF6A3E" offset="0%"></stop>
            <stop stop-color="#FF464A" offset="100%"></stop>
        </linearGradient>
        <linearGradient x1="50%" y1="0%" x2="50%" y2="50%" id="linearGradient-7">
            <stop stop-color="#FFFFFF" offset="0%"></stop>
            <stop stop-color="#FFFFFF" stop-opacity="0" offset="100%"></stop>
        </linearGradient>
        <path d="M117.5,82 C132.135546,82 144,70.1355459 144,55.5 C144,40.8644541 132.135546,29 117.5,29 C102.864454,29 91,40.8644541 91,55.5 C91,70.1355459 102.864454,82 117.5,82 Z" id="path-8"></path>
        <radialGradient cx="104.71788%" cy="90.1316589%" fx="104.71788%" fy="90.1316589%" r="177.414639%" gradientTransform="translate(1.047179,0.901317),scale(0.569669,1.000000),rotate(-161.324703),scale(1.000000,0.888156),translate(-1.047179,-0.901317)" id="radialGradient-9">
            <stop stop-color="#FF2B2F" stop-opacity="0.5" offset="0%"></stop>
            <stop stop-color="#FFAD95" stop-opacity="0.1" offset="100%"></stop>
        </radialGradient>
    </defs>
    <g id="Screens" stroke="none" stroke-width="1" fill="none" fill-rule="evenodd">
        <g id="Screens-/-Homepage-/-Navbar-dropdown" transform="translate(-855.000000, -3336.000000)">
            <g id="Services" transform="translate(360.000000, 3231.000000)">
                <g id="Service" transform="translate(406.000000, 104.000000)">
                    <g id="Group" transform="translate(89.000000, 0.000000)">
                        <g id="Path-2">
                            <use fill="#FFFFFF" xlink:href="#path-2"></use>
                            <use fill-opacity="0.5" fill="url(#linearGradient-1)" xlink:href="#path-2"></use>
                        </g>
                        <g id="Path-2">
                            <use fill="#FFFFFF" xlink:href="#path-3"></use>
                            <use fill="url(#linearGradient-1)" xlink:href="#path-3"></use>
                        </g>
                        <g id="Group-7" transform="translate(60.000000, 20.000000)">
                            <g id="Path-2">
                                <use fill="#FFFFFF" xlink:href="#path-5"></use>
                                <use fill="url(#linearGradient-4)" xlink:href="#path-5"></use>
                            </g>
                            <path d="M9.72602894,46.9896416 L47.2739711,25.0103584 C47.820535,24.6904185 48.5229752,24.8741336 48.8429151,25.4206976 C48.945781,25.5964269 49,25.7963774 49,26 C49,27.2387474 48.343028,28.384569 47.2739711,29.0103584 L9.72602894,50.9896416 C9.17946498,51.3095815 8.47702482,51.1258664 8.15708494,50.5793024 C8.05421902,50.4035731 8,50.2036226 8,50 C8,48.7612526 8.656972,47.615431 9.72602894,46.9896416 Z" id="Path-19" fill-opacity="0.8" fill="#1B2448"></path>
                            <path d="M38.7238684,74.9859597 L69.2761316,57.0140403 C69.8206621,56.6937282 70.5217556,56.8754931 70.8420676,57.4200237 C70.9454732,57.5958132 71,57.7960523 71,58 C71,59.2391528 70.3441998,60.3857648 69.2761316,61.0140403 L38.7238684,78.9859597 C38.1793379,79.3062718 37.4782444,79.1245069 37.1579324,78.5799763 C37.0545268,78.4041868 37,78.2039477 37,78 C37,76.7608472 37.6558002,75.6142352 38.7238684,74.9859597 Z" id="Path-19" fill-opacity="0.8" fill="#1B2448"></path>
                            <path d="M26.7197095,52.9789225 L55.2802905,36.0210775 C55.8209345,35.7000702 56.5194409,35.8781208 56.8404482,36.4187648 C56.9448844,36.5946573 57,36.7954393 57,37 C57,38.2399263 56.346447,39.3880471 55.2802905,40.0210775 L26.7197095,56.9789225 C26.1790655,57.2999298 25.4805591,57.1218792 25.1595518,56.5812352 C25.0551156,56.4053427 25,56.2045607 25,56 C25,54.7600737 25.653553,53.6119529 26.7197095,52.9789225 Z" id="Path-19" fill-opacity="0.5" fill="#595DFF"></path>
                            <path d="M61.7218531,31.4825414 L69.2781469,27.0174586 C69.8207896,26.6968062 70.5206285,26.8767648 70.841281,27.4194074 C70.9451873,27.5952489 71,27.7957532 71,28 C71,29.2395288 70.3452901,30.386874 69.2781469,31.0174586 L61.7218531,35.4825414 C61.1792104,35.8031938 60.4793715,35.6232352 60.158719,35.0805926 C60.0548127,34.9047511 60,34.7042468 60,34.5 C60,33.2604712 60.6547099,32.113126 61.7218531,31.4825414 Z" id="Path-19" fill-opacity="0.5" fill="#595DFF"></path>
                            <path d="M42.7218531,57.4825414 L50.2781469,53.0174586 C50.8207896,52.6968062 51.5206285,52.8767648 51.841281,53.4194074 C51.9451873,53.5952489 52,53.7957532 52,54 C52,55.2395288 51.3452901,56.386874 50.2781469,57.0174586 L42.7218531,61.4825414 C42.1792104,61.8031938 41.4793715,61.6232352 41.158719,61.0805926 C41.0548127,60.9047511 41,60.7042468 41,60.5 C41,59.2604712 41.6547099,58.113126 42.7218531,57.4825414 Z" id="Path-19" fill-opacity="0.5" fill="#595DFF"></path>
                            <path d="M9.7275578,76.4922579 L36.2724422,61.0077421 C36.8204511,60.6880702 37.5238454,60.8731739 37.8435173,61.4211829 C37.9459995,61.5968667 38,61.7966101 38,62 C38,63.238459 37.342197,64.3837184 36.2724422,65.0077421 L9.7275578,80.4922579 C9.17954887,80.8119298 8.47615459,80.6268261 8.15648272,80.0788171 C8.05400046,79.9031333 8,79.7033899 8,79.5 C8,78.261541 8.65780302,77.1162816 9.7275578,76.4922579 Z" id="Path-19" fill-opacity="0.5" fill="#595DFF"></path>
                            <path d="M26.7197095,112.978922 L55.2802905,96.0210775 C55.8209345,95.7000702 56.5194409,95.8781208 56.8404482,96.4187648 C56.9448844,96.5946573 57,96.7954393 57,97 C57,98.2399263 56.346447,99.3880471 55.2802905,100.021078 L26.7197095,116.978922 C26.1790655,117.29993 25.4805591,117.121879 25.1595518,116.581235 C25.0551156,116.405343 25,116.204561 25,116 C25,114.760074 25.653553,113.611953 26.7197095,112.978922 Z" id="Path-19" fill-opacity="0.8" fill="#1B2448" opacity="0.5"></path>
                            <path d="M61.7218531,91.4825414 L69.2781469,87.0174586 C69.8207896,86.6968062 70.5206285,86.8767648 70.841281,87.4194074 C70.9451873,87.5952489 71,87.7957532 71,88 C71,89.2395288 70.3452901,90.386874 69.2781469,91.0174586 L61.7218531,95.4825414 C61.1792104,95.8031938 60.4793715,95.6232352 60.158719,95.0805926 C60.0548127,94.9047511 60,94.7042468 60,94.5 C60,93.2604712 60.6547099,92.113126 61.7218531,91.4825414 Z" id="Path-19" fill-opacity="0.5" fill="#595DFF" opacity="0.5"></path>
                            <path d="M42.7218531,117.482541 L50.2781469,113.017459 C50.8207896,112.696806 51.5206285,112.876765 51.841281,113.419407 C51.9451873,113.595249 52,113.795753 52,114 C52,115.239529 51.3452901,116.386874 50.2781469,117.017459 L42.7218531,121.482541 C42.1792104,121.803194 41.4793715,121.623235 41.158719,121.080593 C41.0548127,120.904751 41,120.704247 41,120.5 C41,119.260471 41.6547099,118.113126 42.7218531,117.482541 Z" id="Path-19" fill-opacity="0.8" fill="#1B2448" opacity="0.2"></path>
                            <path d="M9.7275578,136.492258 L36.2724422,121.007742 C36.8204511,120.68807 37.5238454,120.873174 37.8435173,121.421183 C37.9459995,121.596867 38,121.79661 38,122 C38,123.238459 37.342197,124.383718 36.2724422,125.007742 L9.7275578,140.492258 C9.17954887,140.81193 8.47615459,140.626826 8.15648272,140.078817 C8.05400046,139.903133 8,139.70339 8,139.5 C8,138.261541 8.65780302,137.116282 9.7275578,136.492258 Z" id="Path-19" fill-opacity="0.5" fill="#595DFF" opacity="0.2"></path>
                            <path d="M9.7275578,107.492258 L36.2724422,92.0077421 C36.8204511,91.6880702 37.5238454,91.8731739 37.8435173,92.4211829 C37.9459995,92.5968667 38,92.7966101 38,93 C38,94.238459 37.342197,95.3837184 36.2724422,96.0077421 L9.7275578,111.492258 C9.17954887,111.81193 8.47615459,111.626826 8.15648272,111.078817 C8.05400046,110.903133 8,110.70339 8,110.5 C8,109.261541 8.65780302,108.116282 9.7275578,107.492258 Z" id="Path-19" fill-opacity="0.5" fill="#595DFF" opacity="0.7"></path>
                            <path d="M18.7238684,86.9859597 L32.2761316,79.0140403 C32.8206621,78.6937282 33.5217556,78.8754931 33.8420676,79.4200237 C33.9454732,79.5958132 34,79.7960523 34,80 C34,81.2391528 33.3441998,82.3857648 32.2761316,83.0140403 L18.7238684,90.9859597 C18.1793379,91.3062718 17.4782444,91.1245069 17.1579324,90.5799763 C17.0545268,90.4041868 17,90.2039477 17,90 C17,88.7608472 17.6558002,87.6142352 18.7238684,86.9859597 Z" id="Path-19" fill="#FFFFFF"></path>
                            <path d="M42.7238684,87.9859597 L56.2761316,80.0140403 C56.8206621,79.6937282 57.5217556,79.8754931 57.8420676,80.4200237 C57.9454732,80.5958132 58,80.7960523 58,81 C58,82.2391528 57.3441998,83.3857648 56.2761316,84.0140403 L42.7238684,91.9859597 C42.1793379,92.3062718 41.4782444,92.1245069 41.1579324,91.5799763 C41.0545268,91.4041868 41,91.2039477 41,91 C41,89.7608472 41.6558002,88.6142352 42.7238684,87.9859597 Z" id="Path-19" fill="#FFFFFF" opacity="0.7"></path>
                        </g>
                        <g id="Group-8" transform="translate(60.000000, 73.000000)">
                            <g id="Oval">
                                <use fill-opacity="0.7" fill="url(#linearGradient-6)" xlink:href="#path-8"></use>
                                <use fill-opacity="0.5" fill="url(#linearGradient-7)" xlink:href="#path-8"></use>
                            </g>
                            <path d="M77,0 L109.71287,30.1626012 C98.8775169,33.4887214 91,43.5744144 91,55.5 C91,57.9623854 91.5,61 92,62.5 L2.7000624e-13,44 L77,0 Z" id="Path" fill-opacity="0.6" fill="url(#radialGradient-9)"></path>
                        </g>
                    </g>
                </g>
            </g>
        </g>
    </g>
</svg>