<?xml version="1.0" encoding="UTF-8"?>
<svg width="808px" height="185px" viewBox="0 0 808 185" version="1.1" xmlns="http://www.w3.org/2000/svg" xmlns:xlink="http://www.w3.org/1999/xlink">
    <!-- Generator: Sketch 53.2 (72643) - https://sketchapp.com -->
    <title>Group</title>
    <desc>Created with Sketch.</desc>
    <g id="Page-1" stroke="none" stroke-width="1" fill="none" fill-rule="evenodd">
        <g id="pathable-logo-grayscale" fill="#FFFFFF">
            <g id="Group" transform="translate(0.000166, 0.070046)">
                <path d="M273.923834,120.310954 C258.923834,120.310954 248.393834,109.946954 248.026834,95.0199536 L248.004834,93.9459536 C248.136834,78.4909536 258.989834,67.2999536 273.923834,67.2999536 C288.949834,67.2999536 299.855834,78.6249536 299.855834,94.2279536 C299.855834,109.584954 289.191834,120.310954 273.923834,120.310954 Z M273.923834,55.3719536 C251.897834,55.3719536 235.891834,71.5779536 235.757834,93.9459536 L235.751834,93.9459536 L235.751834,157.533954 C235.751834,158.287954 236.362834,158.898954 237.116834,158.898954 L246.661834,158.898954 C247.415834,158.898954 248.026834,158.287954 248.026834,157.533954 L248.026834,123.338954 C254.634834,129.162954 263.555834,132.520954 273.923834,132.520954 C296.398834,132.520954 312.096834,116.773954 312.096834,94.2279536 C312.096834,71.7129536 296.042834,55.3719536 273.923834,55.3719536 L273.923834,55.3719536 Z" id="Fill-1"></path>
                <path d="M660.003834,120.591954 C644.978834,120.591954 634.071834,109.267954 634.071834,93.6649536 C634.071834,78.3069536 644.735834,67.5819536 660.003834,67.5819536 C675.271834,67.5819536 685.935834,78.3069536 685.935834,93.6649536 C685.935834,109.267954 675.028834,120.591954 660.003834,120.591954 Z M660.003834,55.3719536 C649.616834,55.3719536 640.683834,58.7399536 634.071834,64.5839536 L634.071834,30.0309536 C634.071834,29.2759536 633.460834,28.6649536 632.705834,28.6649536 L623.197834,28.6649536 C622.442834,28.6649536 621.831834,29.2759536 621.831834,30.0309536 L621.831834,93.7609536 L621.833834,93.7609536 C621.879834,116.224954 637.916834,132.520954 660.003834,132.520954 C682.122834,132.520954 698.175834,116.179954 698.175834,93.6649536 C698.175834,71.1179536 682.478834,55.3719536 660.003834,55.3719536 L660.003834,55.3719536 Z" id="Fill-2"></path>
                <path d="M719.975834,28.6649536 L710.469834,28.6649536 C709.714834,28.6649536 709.102834,29.2769536 709.102834,30.0319536 L709.102834,131.153954 C709.102834,131.908954 709.713834,132.520954 710.468834,132.520954 L719.976834,132.520954 C720.731834,132.520954 721.342834,131.908954 721.342834,131.153954 L721.342834,30.0319536 C721.342834,29.2769536 720.730834,28.6649536 719.975834,28.6649536" id="Fill-3"></path>
                <path d="M745.189834,88.6149536 C747.570834,75.6539536 757.332834,67.3709536 770.440834,67.3709536 C785.450834,67.3709536 794.625834,75.0889536 795.817834,88.6149536 L745.189834,88.6149536 Z M799.201834,67.0359536 C792.510834,59.6499536 782.295834,55.5829536 770.440834,55.5829536 C748.679834,55.5829536 732.269834,72.1659536 732.269834,94.1569536 C732.269834,116.786954 747.966834,132.591954 770.440834,132.591954 C783.520834,132.591954 795.875834,127.063954 802.686834,118.166954 L803.501834,117.100954 C803.952834,116.510954 803.849834,115.667954 803.267834,115.204954 L796.180834,109.561954 C795.581834,109.084954 794.707834,109.193954 794.244834,109.803954 L793.397834,110.919954 C788.440834,117.455954 778.295834,120.381954 770.440834,120.381954 C757.265834,120.381954 747.509834,112.483954 745.187834,100.121954 L806.132834,100.121954 C806.833834,100.121954 807.420834,99.5909536 807.489834,98.8929536 L807.611834,97.6599536 C808.856834,85.0709536 805.948834,74.4819536 799.201834,67.0359536 L799.201834,67.0359536 Z" id="Fill-5"></path>
                <path d="M361.193834,120.239954 C345.926834,120.239954 335.263834,109.514954 335.263834,94.1569536 C335.263834,78.5539536 346.168834,67.2299536 361.193834,67.2299536 C376.220834,67.2299536 387.125834,78.5539536 387.125834,94.1569536 C387.125834,109.514954 376.462834,120.239954 361.193834,120.239954 Z M361.193834,55.3009536 C339.075834,55.3009536 323.022834,71.6429536 323.022834,94.1569536 C323.022834,116.703954 338.719834,132.449954 361.193834,132.449954 C371.580834,132.449954 380.514834,129.081954 387.125834,123.237954 L387.125834,131.135954 C387.125834,131.886954 387.733834,132.494954 388.484834,132.494954 L398.006834,132.494954 C398.757834,132.494954 399.366834,131.886954 399.366834,131.135954 L399.366834,93.7799536 L399.357834,93.7799536 C399.178834,71.4619536 383.188834,55.3009536 361.193834,55.3009536 L361.193834,55.3009536 Z" id="Fill-7"></path>
                <path d="M572.732834,120.239954 C557.464834,120.239954 546.801834,109.514954 546.801834,94.1569536 C546.801834,78.5539536 557.706834,67.2299536 572.732834,67.2299536 C587.758834,67.2299536 598.663834,78.5539536 598.663834,94.1569536 C598.663834,109.514954 588.000834,120.239954 572.732834,120.239954 Z M572.732834,55.3009536 C550.613834,55.3009536 534.560834,71.6429536 534.560834,94.1569536 C534.560834,116.703954 550.257834,132.449954 572.732834,132.449954 C583.119834,132.449954 592.053834,129.081954 598.663834,123.237954 L598.663834,131.125954 C598.663834,131.882954 599.276834,132.494954 600.033834,132.494954 L609.535834,132.494954 C610.291834,132.494954 610.904834,131.882954 610.904834,131.125954 L610.904834,93.7799536 L610.896834,93.7799536 C610.717834,71.4619536 594.727834,55.3009536 572.732834,55.3009536 L572.732834,55.3009536 Z" id="Fill-8"></path>
                <path d="M445.335834,118.273954 C445.029834,117.556954 444.188834,117.238954 443.483834,117.574954 L442.204834,118.187954 C438.771834,119.827954 435.378834,120.731954 432.650834,120.731954 C424.991834,120.731954 422.533834,117.502954 422.533834,107.438954 L422.533834,67.8619536 L444.877834,67.8619536 C445.638834,67.8619536 446.254834,67.2459536 446.254834,66.4849536 L446.254834,58.0129536 C446.254834,57.2529536 445.638834,56.6359536 444.877834,56.6359536 L422.533834,56.6359536 L422.533834,36.9209536 C422.533834,36.1049536 421.827834,35.4679536 421.015834,35.5519536 L411.526834,36.5349536 C410.825834,36.6079536 410.292834,37.1989536 410.292834,37.9039536 L410.292834,107.438954 C410.292834,124.082954 417.814834,132.520954 432.650834,132.520954 C436.997834,132.520954 441.681834,131.281954 446.968834,128.734954 L448.139834,128.171954 C448.799834,127.853954 449.093834,127.071954 448.805834,126.397954 L445.335834,118.273954" id="Fill-9"></path>
                <path d="M491.635834,56.6369536 C482.570834,56.7679536 474.913834,59.7349536 469.272834,65.2639536 L469.272834,30.0289536 C469.272834,29.2759536 468.661834,28.6649536 467.907834,28.6649536 L458.537834,28.6649536 C457.783834,28.6649536 457.173834,29.2759536 457.173834,30.0289536 L457.173834,131.155954 C457.173834,131.909954 457.783834,132.520954 458.537834,132.520954 L468.190834,132.520954 C468.943834,132.520954 469.555834,131.909954 469.555834,131.155954 L469.555834,91.6969536 C469.555834,78.3759536 478.857834,68.7059536 491.674834,68.7059536 C504.759834,68.7059536 511.393834,75.8739536 511.393834,90.0109536 L511.393834,131.155954 C511.393834,131.909954 512.004834,132.520954 512.758834,132.520954 L522.269834,132.520954 C523.022834,132.520954 523.634834,131.909954 523.634834,131.155954 L523.634834,90.0109536 C523.634834,69.1129536 511.679834,56.6369536 491.635834,56.6369536" id="Fill-10"></path>
                <path d="M118.738834,99.6909536 C125.527834,132.124954 104.737834,163.920954 72.3038341,170.709954 C39.8698341,177.497954 8.07283413,156.708954 1.28483413,124.273954 C-5.50416587,91.8399536 15.2858341,60.0439536 47.7198341,53.2549536 C80.1538341,46.4659536 111.950834,67.2559536 118.738834,99.6909536" id="Fill-12"></path>
                <path d="M192.153834,118.651954 C190.127834,108.973954 185.661834,100.436954 179.547834,93.5239536 C179.136834,94.2009536 178.730834,94.8799536 178.294834,95.5459536 C168.135834,111.082954 152.531834,121.734954 134.361834,125.537954 C133.112834,125.799954 131.844834,126.019954 130.580834,126.212954 C126.930834,144.183954 116.488834,160.195954 101.525834,170.790954 C114.119834,182.108954 131.744834,187.486954 149.587834,183.752954 C179.319834,177.529954 198.376834,148.383954 192.153834,118.651954" id="Fill-13" opacity="0.600000024"></path>
                <path d="M176.407834,45.7319536 C169.902834,14.6489536 139.430834,-5.27404641 108.347834,1.23095359 C87.2758341,5.64195359 71.3448341,21.0729536 65.2888341,40.2369536 C78.0498341,41.2119536 90.5428341,45.5489536 101.227834,53.0349536 C116.261834,63.5689536 126.721834,79.2549536 130.483834,97.2329536 C131.647834,102.789954 132.110834,108.330954 131.975834,113.775954 C163.018834,107.239954 182.908834,76.7919536 176.407834,45.7319536" id="Fill-14" opacity="0.800000012"></path>
            </g>
        </g>
    </g>
</svg>