<?xml version="1.0" encoding="UTF-8"?>
<svg width="168px" height="31px" viewBox="0 0 168 31" version="1.1" xmlns="http://www.w3.org/2000/svg" xmlns:xlink="http://www.w3.org/1999/xlink">
    <!-- Generator: Sketch 60 (88103) - https://sketch.com -->
    <title>QUALCOMM</title>
    <desc>Created with Sketch.</desc>
    <g id="Screens" stroke="none" stroke-width="1" fill="none" fill-rule="evenodd" fill-opacity="0.4">
        <g id="Screens-/-Homepage" transform="translate(-505.000000, -966.000000)" fill="#1B2448" fill-rule="nonzero">
            <g id="Logos" transform="translate(505.000000, 966.000000)">
                <path d="M45.3439296,8.8971508 C45.794153,8.8971508 46.1800588,9.26337735 46.1800588,9.73731758 L46.1800588,25.7866574 C46.1800588,26.2390549 45.7727138,26.6052814 45.3439296,26.6052814 L43.1785694,26.6052814 C42.7712244,26.6052814 42.3638794,26.2821404 42.3638794,25.8297429 L42.3638794,24.343294 C41.2704796,25.9589993 39.3838291,27.0792217 36.6396102,27.0792217 C32.0516193,27.0792217 29.2216435,24.0201529 29.2216435,19.4746352 L29.2216435,9.69423211 C29.2216435,9.24183461 29.6289885,8.87560806 30.0577727,8.87560806 L32.2231329,8.87560806 C32.6733564,8.87560806 33.0378229,9.24183461 33.0378229,9.69423211 L33.0378229,18.8498958 C33.0378229,21.8012509 34.5814461,23.76164 37.6258139,23.76164 C40.6058641,23.76164 42.3638794,21.7366227 42.3638794,18.8929812 L42.3638794,9.69423211 C42.3638794,9.24183461 42.7712244,8.87560806 43.1785694,8.87560806 L45.3439296,8.87560806 L45.3439296,8.8971508 Z M13.3995064,0 C5.98153965,0 0,5.79499653 0,13.5288395 C0,21.2842252 5.98153965,27.0576789 13.3995064,27.0576789 C14.6644198,27.0576789 15.8864548,26.885337 17.0441721,26.562196 L18.5020384,30.3321751 C18.6521129,30.7414871 18.9522618,31 19.4882421,31 L21.8036768,31 C22.3610962,31 22.7684412,30.6337735 22.5111707,29.9228631 L20.6245202,24.9895761 C24.3335036,22.6414177 26.7990128,18.4836692 26.7990128,13.5072967 C26.7990128,5.79499653 20.8174731,0 13.3995064,0 L13.3995064,0 Z M19.2309716,21.3919388 L17.5372739,16.9756776 C17.3871995,16.609451 17.0870505,16.2647672 16.4438742,16.2647672 L14.2356356,16.2647672 C13.6782161,16.2647672 13.2494319,16.6309937 13.5067024,17.3419041 L15.7363803,23.1369006 C15.0074471,23.3307853 14.2141964,23.4169562 13.3995064,23.4169562 C7.9753862,23.4169562 4.11632836,19.1299514 4.11632836,13.5288395 C4.11632836,7.92772759 7.9753862,3.64072272 13.3995064,3.64072272 C18.8236266,3.64072272 22.6826844,7.92772759 22.6826844,13.5288395 C22.6826844,16.8033356 21.3748926,19.6038916 19.2309716,21.3919388 L19.2309716,21.3919388 Z M167.933334,25.7004864 C168.126286,26.1528839 167.890455,26.5837387 167.354475,26.5837387 L164.931844,26.5837387 C164.481621,26.5837387 164.117154,26.3683113 163.96708,25.9159138 L159.486285,13.8088951 L154.941172,25.9159138 C154.748219,26.3898541 154.426631,26.5837387 153.976408,26.5837387 L151.811047,26.5837387 C151.360824,26.5837387 151.039236,26.3898541 150.846283,25.9159138 L146.258292,13.7442669 L141.734619,25.9159138 C141.541666,26.3683113 141.220078,26.5837387 140.769854,26.5837387 L138.497298,26.5837387 C138.047075,26.5837387 137.725486,26.3683113 137.532533,25.9159138 L133.051739,13.7442669 L128.420869,25.9159138 C128.227916,26.3898541 127.906328,26.5837387 127.456105,26.5837387 L125.290744,26.5837387 C124.840521,26.5837387 124.518933,26.3898541 124.32598,25.9159138 L119.802307,13.7442669 L115.278633,25.9159138 C115.128559,26.3683113 114.764092,26.5837387 114.313869,26.5837387 L111.955556,26.5837387 C111.398136,26.5837387 111.183744,26.1313412 111.376697,25.7004864 L117.508311,9.58651842 C117.701264,9.11257818 118.022852,8.87560806 118.473076,8.87560806 L121.110098,8.87560806 C121.560322,8.87560806 121.88191,9.09103544 122.074863,9.58651842 L126.49134,21.3488534 L130.864939,9.58651842 C131.057892,9.11257818 131.37948,8.87560806 131.829704,8.87560806 L134.423848,8.87560806 C134.874071,8.87560806 135.19566,9.09103544 135.388612,9.58651842 L139.719333,21.3488534 L144.050053,9.58651842 C144.243006,9.11257818 144.564594,8.87560806 145.014818,8.87560806 L147.630401,8.87560806 C148.080625,8.87560806 148.402213,9.09103544 148.595166,9.58651842 L152.990204,21.3488534 L157.278046,9.58651842 C157.470999,9.11257818 157.792587,8.87560806 158.242811,8.87560806 L160.879833,8.87560806 C161.330057,8.87560806 161.651645,9.09103544 161.844598,9.58651842 L167.933334,25.7004864 L167.933334,25.7004864 Z M66.3329164,8.8971508 L64.1675561,8.8971508 C63.7173327,8.8971508 63.3314269,9.26337735 63.3314269,9.73731758 L63.3314269,11.2022238 C62.2380272,9.54343294 60.0941062,8.35858235 57.5642794,8.35858235 C52.7833355,8.35858235 48.6884464,12.1501042 48.6884464,17.6865879 C48.6884464,23.2876998 52.8047747,27.0576789 57.5428402,27.0576789 C60.1155454,27.0576789 62.1951488,25.8728284 63.3528662,24.2140375 L63.3528662,25.7651147 C63.3528662,26.2175122 63.7602112,26.5837387 64.1889954,26.5837387 L66.3543556,26.5837387 C66.804579,26.5837387 67.1690456,26.2175122 67.1690456,25.7651147 L67.1690456,9.73731758 C67.1476064,9.26337735 66.7831398,8.8971508 66.3329164,8.8971508 L66.3329164,8.8971508 Z M57.9716244,23.5246699 C54.8200605,23.5246699 52.5689434,20.9395413 52.5689434,17.7296734 C52.5689434,14.4767199 54.7986213,11.9777623 57.9716244,11.9777623 C61.1017491,11.9777623 63.3743054,14.4767199 63.3743054,17.7296734 C63.3528662,20.9610841 61.0803099,23.5246699 57.9716244,23.5246699 L57.9716244,23.5246699 Z M92.1671647,24.0847811 C92.6388273,24.666435 92.2314823,25.1188325 91.9742118,25.3127172 C90.4734671,26.4544823 88.4796205,27.0792217 86.3142603,27.0792217 C80.8472617,27.0792217 77.202596,23.0507297 77.202596,17.7512161 C77.202596,12.4517026 80.8472617,8.38012509 86.3142603,8.38012509 C88.4796205,8.38012509 90.4520279,9.00486449 91.9742118,10.1466296 C92.2314823,10.3405142 92.5959489,10.7282835 92.1671647,11.3745657 L91.1380826,12.8179291 C90.7307376,13.3780403 90.259075,13.2272411 89.85173,12.9687283 C88.8869655,12.3870744 87.7506874,11.8915914 86.4428956,11.8915914 C83.2484532,11.8915914 81.1259714,14.4767199 81.1259714,17.7512161 C81.1259714,21.0257123 83.2484532,23.5892981 86.4428956,23.5892981 C87.7721266,23.5892981 88.8226479,23.0722724 89.7874123,22.5121612 C90.1947573,22.2967338 90.6235415,22.1028492 91.073765,22.7060459 L92.1671647,24.0847811 L92.1671647,24.0847811 Z M102.372229,8.40166782 C97.2268183,8.40166782 93.1319291,12.4517026 93.1319291,17.7296734 C93.1319291,23.0507297 97.2482575,27.0576789 102.372229,27.0576789 C107.517639,27.0576789 111.612612,23.0291869 111.612612,17.7296734 C111.633968,12.4732453 107.517639,8.40166782 102.372229,8.40166782 L102.372229,8.40166782 Z M102.372229,23.5031272 C99.2206648,23.5031272 96.9695478,20.9610841 96.9695478,17.7512161 C96.9695478,14.4982627 99.1992256,11.9993051 102.372229,11.9993051 C105.523793,11.9993051 107.77491,14.4982627 107.77491,17.7512161 C107.77491,20.9610841 105.545232,23.5031272 102.372229,23.5031272 L102.372229,23.5031272 Z M73.9223968,0.473940236 C74.3940594,0.473940236 74.7370868,0.883252259 74.7370868,1.31410702 L74.7370868,25.7435719 C74.7370868,26.1959694 74.4154986,26.5837387 73.9223968,26.5837387 L71.7570366,26.5837387 C71.3068131,26.5837387 70.9209074,26.1744267 70.9209074,25.7435719 L70.9209074,1.33564976 C70.9209074,0.883252259 71.3282524,0.495482974 71.7570366,0.495482974 L73.9223968,0.495482974 L73.9223968,0.473940236 Z" id="QUALCOMM"></path>
            </g>
        </g>
    </g>
</svg>