<?xml version="1.0" encoding="UTF-8"?>
<svg width="52px" height="46px" viewBox="0 0 52 46" version="1.1" xmlns="http://www.w3.org/2000/svg" xmlns:xlink="http://www.w3.org/1999/xlink">
    <!-- Generator: Sketch 60 (88103) - https://sketch.com -->
    <title>React</title>
    <desc>Created with Sketch.</desc>
    <g id="Screens" stroke="none" stroke-width="1" fill="none" fill-rule="evenodd" fill-opacity="0.4">
        <g id="Screens-/-Homepage" transform="translate(-432.000000, -2392.000000)" fill="#1B2448" fill-rule="nonzero">
            <g id="Integrations" transform="translate(432.000000, 2291.000000)">
                <g id="Stacked-Group" transform="translate(0.000000, 97.000000)">
                    <path d="M36.5674684,4 L36.567,4.01 L36.8473094,4.01757676 C37.51832,4.05053499 38.1415976,4.19955473 38.6971939,4.47454365 L38.9311048,4.60013733 C41.9200978,6.3057908 42.5984509,11.6333257 41.0721565,18.3295949 C47.6860987,20.3405814 52,23.5834287 52,27.0052644 C52,30.4165713 47.7072972,33.6594186 41.1357521,35.6704051 C42.6726457,42.3456168 42.004892,47.662623 39.0264982,49.3682765 C38.3269466,49.768368 37.5214024,49.9578851 36.631064,49.9578851 C33.7162658,49.9578851 29.90053,47.9153124 26.0423971,44.3566033 C22.1842642,47.9363699 18.3685283,50 15.4537301,50 C14.5633918,50 13.7578475,49.8104829 13.0688952,49.4103914 C10.0799022,47.7047379 9.40154912,42.377203 10.9278435,35.6809339 C4.31390135,33.6699474 -4.36983782e-13,30.4271 -4.36983782e-13,27.0052644 C-4.36983782e-13,23.5939574 4.29270281,20.3616388 10.8854464,18.3401236 C9.34855279,11.6649119 10.0163066,6.3479057 12.9947004,4.64225223 C13.6942519,4.24216068 14.4997962,4.05264363 15.3901345,4.05264363 L15.3901345,4.05264363 L15.3901345,4.0421149 C18.3049327,4.0421149 22.1206686,6.08468757 25.9788015,9.64339666 C29.8369344,6.06363012 33.6526702,4 36.5674684,4 L36.5674684,4 Z M13.1960864,36.3126574 C12.9629026,37.3760586 12.7721158,38.4184024 12.6555238,39.4081025 C12.1679576,43.4300755 12.7933143,46.5571069 14.2348145,47.3783474 C14.5527925,47.5573358 14.9555646,47.6520943 15.4325316,47.662623 C17.637179,47.662623 20.8805544,45.9148547 24.3359152,42.7246509 C22.8414187,41.1769284 21.3575214,39.4081025 19.9266205,37.4602884 C17.5417856,37.207599 15.2735426,36.8180362 13.1960864,36.3126574 Z M38.8251121,36.2915999 C36.7476559,36.8075074 34.479413,37.1970703 32.0839788,37.4497597 C30.6742764,39.3975738 29.1903791,41.1558709 27.7064819,42.7035935 C31.1618426,45.8727398 34.4158174,47.6099794 36.6098655,47.6099794 C37.0974317,47.6099794 37.5108031,47.5257496 37.8287811,47.3362325 C39.259682,46.5044633 39.8744395,43.3774319 39.376274,39.3554589 C39.259682,38.3762875 39.0688952,37.3550011 38.8251121,36.2915999 Z M28.9359967,37.6919203 C27.9714635,37.744564 26.9857318,37.7656214 25.9894007,37.7656214 C25.003669,37.7656214 24.0285365,37.7340352 23.0746025,37.6919203 C24.049735,38.9237812 25.0354668,40.0503548 26.0211985,41.0611124 C26.996331,40.0503548 27.9820628,38.9237812 28.9359967,37.6919203 Z M26,18.6033417 C24.3889115,18.6033417 22.7884223,18.6770428 21.2091317,18.8139162 C20.3293926,20.0668345 19.4814513,21.4145113 18.6547085,22.8358892 C17.8597636,24.2151522 17.1178149,25.6260014 16.4606604,27.0368505 C17.1284142,28.4476997 17.8597636,29.8480201 18.6653078,31.2272831 C19.4920506,32.6381323 20.3505911,33.9752804 21.2303302,35.2281987 C22.7990216,35.3545434 24.3995108,35.4282444 26,35.4282444 C27.6110885,35.4282444 29.2115777,35.3545434 30.7908683,35.2176699 C31.6706074,33.9647517 32.5185487,32.6170748 33.3452915,31.195697 C34.1402364,29.816434 34.8715858,28.4055848 35.5393396,26.9947356 C34.8715858,25.5838865 34.1402364,24.183566 33.3346922,22.804303 C32.5079494,21.3934539 31.6494089,20.0563058 30.7696698,18.8033875 C29.2009784,18.6770428 27.6004892,18.6033417 26,18.6033417 Z M36.7688545,29.8269627 C36.3342845,30.6692607 35.8785161,31.5220874 35.3909499,32.3643854 C34.9033836,33.2172122 34.3840196,34.0489815 33.8646555,34.8596933 C35.3803506,34.6385901 36.8430493,34.3543145 38.2315532,34.0173953 C37.8287811,32.648661 37.3412148,31.2378119 36.7688545,29.8269627 Z M15.2205463,29.8690776 C14.6693844,31.269398 14.1818182,32.6697185 13.7896453,34.027924 C15.1781492,34.3648432 16.6302487,34.6385901 18.1353445,34.8596933 C17.6159804,34.0595102 17.1072157,33.2382696 16.6090501,32.3959716 C16.1108846,31.5536736 15.6551162,30.7113756 15.2205463,29.8690776 Z M11.468406,20.6143282 C10.4402772,20.9407187 9.44394619,21.2881666 8.53240929,21.6777295 C4.78026906,23.2570382 2.3530371,25.3522545 2.3530371,27.0052644 C2.3530371,28.6582742 4.78026906,30.7429618 8.53240929,32.3327993 C9.45454545,32.7223621 10.4508765,33.0803388 11.5002038,33.4067292 C12.0937627,31.3536278 12.8781084,29.2162966 13.8532409,27.0263218 C12.8675092,24.8258183 12.0725642,22.6779583 11.468406,20.6143282 Z M40.4891969,20.6037995 C39.895638,22.6569009 39.1112923,24.7942321 38.1361598,26.9842069 C39.1218916,29.1847105 39.9168365,31.3325704 40.5209947,33.3962005 C41.5491235,33.06981 42.5454545,32.7223621 43.4569914,32.3327993 C47.2091317,30.7534905 49.6363636,28.6582742 49.6469629,27.0052644 C49.6469629,25.3522545 47.2197309,23.2675669 43.4675907,21.6777295 C42.5348553,21.2881666 41.5385243,20.93019 40.4891969,20.6037995 Z M25.74,22.0898876 C28.4682867,22.0898876 30.68,24.2882198 30.68,27 C30.68,29.7117802 28.4682867,31.9101124 25.74,31.9101124 C23.0117133,31.9101124 20.8,29.7117802 20.8,27 C20.8,24.2882198 23.0117133,22.0898876 25.74,22.0898876 Z M18.1247452,19.1508354 C16.6090501,19.3719387 15.1463514,19.6562142 13.7578475,19.9826047 C14.1606196,21.351339 14.6481859,22.7621881 15.2205463,24.1730373 C15.6551162,23.3307393 16.1108846,22.4884413 16.5984509,21.6461433 C17.0860171,20.7933165 17.6053812,19.9615473 18.1247452,19.1508354 Z M33.8540563,19.1508354 C34.3734203,19.9510185 34.8927843,20.7722591 35.3803506,21.6145571 C35.8785161,22.4568551 36.3342845,23.2991531 36.7688545,24.1414511 C37.3200163,22.7411307 37.8075826,21.3408103 38.1997554,19.9826047 C36.8112515,19.6456855 35.3591521,19.3719387 33.8540563,19.1508354 Z M15.3901345,6.3900206 L15.3901345,6.40054932 C14.9025683,6.40054932 14.4891969,6.48477913 14.1712189,6.67429618 C12.740318,7.50606546 12.1255605,10.6330968 12.623726,14.6550698 C12.7509172,15.6342412 12.9311048,16.6555276 13.1748879,17.7084001 C15.2523441,17.1924926 17.520587,16.8029297 19.9160212,16.5502403 C21.3257236,14.6024262 22.8096209,12.8441291 24.2935181,11.2964065 C20.8381574,8.12726024 17.5841826,6.3900206 15.3901345,6.3900206 L15.3901345,6.3900206 Z M36.556,6.347 L36.3577648,6.3530168 C34.1599031,6.45854985 31.0114656,8.19536793 27.6640848,11.2858778 C29.1585813,12.8336004 30.6424786,14.6024262 32.0733795,16.5502403 C34.4582144,16.8029297 36.7264574,17.1924926 38.8039136,17.6978714 C39.0370974,16.6344701 39.2278842,15.5921263 39.3444762,14.6024262 C39.8320424,10.5804532 39.2066857,7.45342184 37.7651855,6.63218128 C37.4366082,6.45319295 37.0444354,6.35843442 36.5568691,6.35843442 L36.5568691,6.35843442 L36.556,6.347 Z M25.9682022,12.9494163 C24.9930697,13.960174 24.007338,15.0867475 23.053404,16.3186084 C24.0179372,16.2659648 25.003669,16.2449073 26,16.2449073 C26.9857318,16.2449073 27.9608642,16.2764935 28.9147982,16.3186084 C27.9396657,15.0867475 26.953934,13.960174 25.9682022,12.9494163 Z" id="React"></path>
                </g>
            </g>
        </g>
    </g>
</svg>