<?xml version="1.0" encoding="UTF-8"?>
<svg width="177px" height="32px" viewBox="0 0 177 32" version="1.1" xmlns="http://www.w3.org/2000/svg" xmlns:xlink="http://www.w3.org/1999/xlink">
    <!-- Generator: Sketch 60 (88103) - https://sketch.com -->
    <title>Combined Shape</title>
    <desc>Created with Sketch.</desc>
    <g id="Screens" stroke="none" stroke-width="1" fill="none" fill-rule="evenodd" fill-opacity="0.4">
        <g id="Screens-/-Homepage" transform="translate(-749.000000, -1058.000000)" fill="#1B2448">
            <g id="Logos" transform="translate(505.000000, 966.000000)">
                <path d="M254.966755,93.3523051 C256.088802,93.9750956 257.14942,94.7630627 258.055199,95.6388736 C259.515277,95.3745912 261.020788,95.2413238 262.548109,95.2413238 C267.120255,95.2413238 271.455053,96.4399797 274.753222,98.6158049 C276.461189,99.7431346 277.818767,101.080689 278.78779,102.591679 C279.866946,104.275353 280.413975,106.085913 280.413975,108.025986 C280.413975,109.913878 279.866946,111.725189 278.78779,113.408488 C277.818767,114.920229 276.461189,116.257408 274.753222,117.384737 C271.455053,119.560562 267.120619,120.758468 262.548109,120.758468 C261.020788,120.758468 259.51564,120.6252 258.055199,120.361293 C257.149057,121.236729 256.088802,122.025071 254.966755,122.647862 C248.971606,125.648443 244,122.718437 244,122.718437 C244,122.718437 248.622306,118.796621 247.870641,115.358697 C245.802471,113.240308 244.681878,110.685328 244.681878,107.974556 C244.681878,105.314839 245.802834,102.759858 247.870641,100.641094 C248.622182,97.2041149 244.001531,93.2830285 244,93.28173 C244.001479,93.2808582 248.972497,90.3517945 254.966755,93.3523051 Z M262.598212,98.6165413 C254.5871,98.6165413 248.09281,102.815145 248.09281,107.994384 C248.09281,110.251457 249.326173,112.322292 251.380946,113.94056 C251.959664,115.785309 251.620625,117.864496 250.36383,120.178121 C250.303702,120.28881 250.247693,120.400763 250.186867,120.511278 C251.265117,120.421107 252.35496,120.125588 253.45862,119.583933 C254.172314,119.18243 254.86115,118.688344 255.472582,118.141715 L255.771604,117.864208 L257.025895,116.655305 C258.741522,117.117195 260.6238,117.372227 262.598212,117.372227 C270.609324,117.372227 277.103614,113.173624 277.103614,107.994384 C277.103614,102.815145 270.609324,98.6165413 262.598212,98.6165413 Z M367.658163,115.157895 C368.007326,115.157895 368.194886,115.345242 368.194886,115.694008 L368.194886,118.160884 C368.194886,118.510069 368.007326,118.697416 367.658163,118.697416 L365.214861,118.697416 C364.865698,118.697416 364.67772,118.510069 364.67772,118.160884 L364.67772,115.694008 C364.67772,115.345242 364.865698,115.157895 365.214861,115.157895 L367.658163,115.157895 Z M294.60558,97.2374035 C297.129265,97.2374035 298.471909,98.5785242 298.471909,101.099346 L298.471909,107.64353 C298.471909,109.440473 297.800796,110.620592 296.512159,111.18347 L298.364732,118.21024 C298.445114,118.532661 298.284349,118.692826 297.988774,118.692826 L295.196309,118.692826 C294.927948,118.692826 294.793977,118.559006 294.73997,118.317295 L292.940986,111.505472 L291.088413,111.505472 L291.088413,118.264186 C291.088413,118.532661 290.927648,118.692826 290.658868,118.692826 L287.866403,118.692826 C287.598041,118.692826 287.436857,118.531824 287.436857,118.264186 L287.436857,97.6664618 C287.436857,97.3984049 287.598041,97.2374035 287.866403,97.2374035 L294.60558,97.2374035 Z M307.491948,97.2374035 C310.015633,97.2374035 311.358277,98.5785242 311.358277,101.099346 L311.358277,114.830883 C311.358277,117.351287 310.015633,118.692407 307.491948,118.692407 L304.48471,118.692407 C301.960606,118.692407 300.618381,117.351287 300.618381,114.830883 L300.618381,101.099346 C300.618381,98.5785242 301.960606,97.2374035 304.48471,97.2374035 L307.491948,97.2374035 Z M320.942251,97.2374035 C323.439142,97.2374035 324.808161,98.5785242 324.808161,101.099346 L324.808161,103.995698 C324.808161,104.264173 324.646977,104.424757 324.379035,104.424757 L321.694165,104.424757 C321.398591,104.424757 321.26462,104.264173 321.26462,103.995698 L321.26462,101.850407 C321.26462,101.153292 320.889081,100.77818 320.191174,100.77818 L318.794942,100.77818 C318.070241,100.77818 317.721078,101.153292 317.721078,101.850407 L317.721078,114.080658 C317.721078,114.804537 318.096616,115.152468 318.794942,115.152468 L320.191174,115.152468 C320.889081,115.152468 321.26462,114.804119 321.26462,114.080658 L321.26462,111.934531 C321.26462,111.666056 321.398591,111.505472 321.694165,111.505472 L324.379035,111.505472 C324.648233,111.505472 324.808161,111.666056 324.808161,111.934531 L324.808161,114.831301 C324.808161,117.351705 323.438723,118.692826 320.942251,118.692826 L317.935013,118.692826 C315.411328,118.692826 314.04189,117.351705 314.04189,114.831301 L314.04189,101.099346 C314.04189,98.5785242 315.411328,97.2374035 317.935013,97.2374035 L320.942251,97.2374035 Z M330.60619,97.2374035 C330.954934,97.2374035 331.142912,97.4251688 331.142912,97.7739354 L331.142912,106.08788 L335.277603,97.6396979 C335.411993,97.371641 335.60039,97.2374035 335.895546,97.2374035 L338.714386,97.2374035 C339.117138,97.2374035 339.278322,97.5058786 339.089925,97.8809909 L334.526107,107.240817 L339.38508,118.076002 C339.573059,118.424769 339.411874,118.692826 338.982748,118.692826 L336.137113,118.692826 C335.814326,118.692826 335.627184,118.559006 335.51917,118.290949 L332.136812,110.325353 L331.142912,112.22977 L331.142912,118.156294 C331.142912,118.50506 330.955352,118.692826 330.60619,118.692826 L328.028498,118.692826 C327.679335,118.692826 327.491356,118.50506 327.491356,118.156294 L327.491356,97.7739354 C327.491356,97.425587 327.679335,97.2374035 328.028498,97.2374035 L330.60619,97.2374035 Z M377.775823,97.2374035 C380.273132,97.2374035 381.642152,98.5785242 381.642152,101.099346 L381.642152,103.995698 C381.642152,104.264173 381.480549,104.424757 381.212606,104.424757 L378.527737,104.424757 C378.232581,104.424757 378.09861,104.264173 378.09861,103.995698 L378.09861,101.850407 C378.09861,101.153292 377.723072,100.77818 377.025165,100.77818 L375.628932,100.77818 C374.903812,100.77818 374.555068,101.153292 374.555068,101.850407 L374.555068,114.080658 C374.555068,114.804537 374.930607,115.152468 375.628932,115.152468 L377.025165,115.152468 C377.723072,115.152468 378.09861,114.804119 378.09861,114.080658 L378.09861,111.934531 C378.09861,111.666056 378.232581,111.505472 378.527737,111.505472 L381.212606,111.505472 C381.481805,111.505472 381.642152,111.666056 381.642152,111.934531 L381.642152,114.831301 C381.642152,117.351705 380.272714,118.692826 377.775823,118.692826 L374.768585,118.692826 C372.2449,118.692826 370.875462,117.351705 370.875462,114.831301 L370.875462,101.099346 C370.875462,98.5785242 372.2449,97.2374035 374.768585,97.2374035 L377.775823,97.2374035 Z M387.547776,97.2374035 C387.816975,97.2374035 387.977322,97.3984049 387.977322,97.6664618 L387.977322,106.194936 L391.414105,106.194936 L391.414105,97.6664618 C391.414105,97.3984049 391.57487,97.2374035 391.843232,97.2374035 L394.608484,97.2374035 C394.930852,97.2374035 395.064405,97.3984049 395.064405,97.6664618 L395.064405,118.263767 C395.064405,118.531824 394.930434,118.691989 394.608484,118.691989 L391.843232,118.691989 C391.574033,118.691989 391.414105,118.530988 391.414105,118.263767 L391.414105,109.735294 L387.977322,109.735294 L387.977322,118.264186 C387.977322,118.532661 387.816137,118.692826 387.547776,118.692826 L384.782942,118.692826 C384.460155,118.692826 384.326184,118.531824 384.326184,118.264186 L384.326184,97.6664618 C384.326184,97.3984049 384.460155,97.2374035 384.782942,97.2374035 L387.547776,97.2374035 Z M405.617579,97.2374035 C405.859146,97.2374035 406.02033,97.3448772 406.073919,97.612934 L410.530977,118.237003 C410.584985,118.531824 410.477389,118.692826 410.155439,118.692826 L407.308129,118.692826 C407.066562,118.692826 406.932591,118.559006 406.878584,118.317295 L406.127088,114.402243 L401.347661,114.402243 L400.623378,118.317295 C400.569371,118.559006 400.4354,118.692826 400.193833,118.692826 L397.321403,118.692826 C397.026248,118.692826 396.891858,118.531824 396.971822,118.237003 L401.428881,97.612934 C401.482888,97.3448772 401.643654,97.2374035 401.885221,97.2374035 L405.617579,97.2374035 Z M420.570454,97.2374035 C420.86561,97.2374035 421,97.3984049 421,97.6664618 L421,100.348703 C421,100.61676 420.86561,100.777761 420.570454,100.777761 L417.456458,100.777761 L417.456458,118.263767 C417.456458,118.558588 417.322068,118.691989 417.026913,118.691989 L414.234448,118.691989 C413.966086,118.691989 413.805321,118.558588 413.805321,118.263767 L413.805321,100.777761 L410.691324,100.777761 C410.422544,100.777761 410.262197,100.61676 410.262197,100.348703 L410.262197,97.6664618 C410.262197,97.3984049 410.423382,97.2374035 410.691324,97.2374035 L420.570454,97.2374035 Z M364.514754,97.2374035 C364.809909,97.2374035 364.944299,97.3984049 364.944299,97.6664618 L364.944299,100.348703 C364.944299,100.61676 364.809909,100.777761 364.514754,100.777761 L361.400339,100.777761 L361.400339,118.263767 C361.400339,118.558588 361.266368,118.691989 360.971212,118.691989 L358.178747,118.691989 C357.909548,118.691989 357.749201,118.558588 357.749201,118.263767 L357.749201,100.777761 L354.635205,100.777761 C354.366006,100.777761 354.205659,100.61676 354.205659,100.348703 L354.205659,97.6664618 C354.205659,97.3984049 354.366844,97.2374035 354.635205,97.2374035 L364.514754,97.2374035 Z M351.628386,97.2374035 C351.951173,97.2374035 352.057931,97.3984049 352.057931,97.6664618 L352.057931,100.348703 C352.057931,100.61676 351.950336,100.804525 351.628386,100.804525 L344.916003,100.804525 L344.916003,106.168172 L350.044175,106.168172 C350.313373,106.168172 350.47372,106.329173 350.47372,106.623994 L350.47372,109.279053 C350.47372,109.574292 350.312536,109.735294 350.044175,109.735294 L344.916003,109.735294 L344.916003,115.152468 L351.628386,115.152468 C351.951173,115.152468 352.057931,115.286705 352.057931,115.581526 L352.057931,118.263767 C352.057931,118.531824 351.950336,118.691989 351.628386,118.691989 L341.748,118.691989 C341.506014,118.691989 341.34483,118.530988 341.34483,118.263767 L341.34483,97.6664618 C341.34483,97.3984049 341.506014,97.2374035 341.748,97.2374035 L351.628386,97.2374035 Z M306.820416,100.69747 L305.263418,100.69747 C304.565511,100.69747 304.189554,101.073 304.189554,101.770115 L304.189554,114.160532 C304.189554,114.883993 304.565511,115.232759 305.263418,115.232759 L306.820416,115.232759 C307.518323,115.232759 307.89428,114.883993 307.89428,114.160114 L307.89428,101.770115 C307.89428,101.073 307.518323,100.69747 306.820416,100.69747 Z M403.736956,101.930699 L402.018774,111.290525 L405.455557,111.290525 L403.736956,101.930699 Z M269.373581,105.894737 C270.551335,105.894737 271.506094,106.864226 271.506094,108.06015 C271.506094,109.256075 270.551335,110.225564 269.373581,110.225564 C268.195826,110.225564 267.241068,109.256075 267.241068,108.06015 C267.241068,106.864226 268.195826,105.894737 269.373581,105.894737 Z M255.642278,105.894737 C256.820033,105.894737 257.774791,106.864226 257.774791,108.06015 C257.774791,109.256075 256.820033,110.225564 255.642278,110.225564 C254.464524,110.225564 253.509765,109.256075 253.509765,108.06015 C253.509765,106.864226 254.464524,105.894737 255.642278,105.894737 Z M262.507929,105.894737 C263.685684,105.894737 264.640442,106.864226 264.640442,108.06015 C264.640442,109.256075 263.685684,110.225564 262.507929,110.225564 C261.330175,110.225564 260.375417,109.256075 260.375417,108.06015 C260.375417,106.864226 261.330175,105.894737 262.507929,105.894737 Z M293.746488,100.77818 L291.088413,100.77818 L291.088413,107.965533 L293.746488,107.965115 C294.444395,107.965115 294.820352,107.589584 294.820352,106.892469 L294.820352,101.850407 C294.820352,101.153292 294.444395,100.77818 293.746488,100.77818 Z" id="Combined-Shape"></path>
            </g>
        </g>
    </g>
</svg>